<svg xmlns="http://www.w3.org/2000/svg" viewBox="0 0 279.54 188.49"><defs><style>.cls-1{isolation:isolate;}.cls-2{fill:#f9f2d8;}.cls-3,.cls-4{fill:#f2e2c7;}.cls-4{mix-blend-mode:multiply;}</style></defs><g class="cls-1"><g id="Layer_1" data-name="Layer 1"><rect class="cls-2" width="279.54" height="188.49"/><path class="cls-3" d="M48.33,51.3a35.15,35.15,0,0,0-3,7.43l-.12.46a18.79,18.79,0,0,1-6.58-9.74,22.73,22.73,0,0,1,6.43.73l.26.07h0A21.32,21.32,0,0,1,48.33,51.3Z"/><path class="cls-3" d="M54.12,71.88l0,0h0l0,0A6.69,6.69,0,0,1,52,73.61l-.05,0a2.1,2.1,0,0,1-2.86-.79,16.84,16.84,0,0,1-1.2-2.66,15.92,15.92,0,0,1-.46-1.56c0-.11-.06-.2-.08-.31a11.46,11.46,0,0,1-.27-1.67h0c-.53-5.34,2.19-11.81,3.78-14.53a17.62,17.62,0,0,0,4.65-.16C57.73,59.67,56.65,68.12,54.12,71.88Z"/><path class="cls-3" d="M44.68,62c-.11.77-.2,1.56-.24,2.38C35.33,56,25,42.14,21.36,30.47a4.51,4.51,0,0,1,2.25-5.32,76.75,76.75,0,0,1,29.15-8,30.5,30.5,0,0,0-11.86,14,47.07,47.07,0,0,0-3.64,15.76l-.38,0a1.33,1.33,0,0,0-1.15,1.52C35.8,48.85,37.33,57.41,44.68,62Z"/><path class="cls-3" d="M51.77,27.15a30.5,30.5,0,0,0-7.58,20.16,25.25,25.25,0,0,0-4.3-.47,44.89,44.89,0,0,1,3.4-14.63c2-4.68,6.8-12.55,16.68-15.39h0c3,0,6.16.11,9.48.4C62,19.05,56.09,22.38,51.77,27.15Z"/><path class="cls-3" d="M80,71.79l-.23-.11a5.72,5.72,0,0,0-4.61,0L75,71.7A5.06,5.06,0,0,0,73.23,73h0l.27.21.12.1.09.06a9.27,9.27,0,0,0,5.66,2,7.3,7.3,0,0,0,1.8-.2l.49-.13a3.8,3.8,0,0,0,.47-.18A3.62,3.62,0,0,0,80,71.79Zm0,0-.23-.11a5.72,5.72,0,0,0-4.61,0L75,71.7A5.06,5.06,0,0,0,73.23,73h0l.27.21.12.1.09.06a9.27,9.27,0,0,0,5.66,2,7.3,7.3,0,0,0,1.8-.2l.49-.13a3.8,3.8,0,0,0,.47-.18A3.62,3.62,0,0,0,80,71.79Zm0,0-.23-.11a5.72,5.72,0,0,0-4.61,0L75,71.7A5.06,5.06,0,0,0,73.23,73h0l.27.21.12.1.09.06a9.27,9.27,0,0,0,5.66,2,7.3,7.3,0,0,0,1.8-.2l.49-.13a3.8,3.8,0,0,0,.47-.18A3.62,3.62,0,0,0,80,71.79Zm0,0-.23-.11a5.72,5.72,0,0,0-4.61,0L75,71.7A5.06,5.06,0,0,0,73.23,73h0l.27.21.12.1.09.06a9.27,9.27,0,0,0,5.66,2,7.3,7.3,0,0,0,1.8-.2l.49-.13a3.8,3.8,0,0,0,.47-.18A3.62,3.62,0,0,0,80,71.79Zm17.32-16.3c-.06-1.81-.18-3.52-.34-5a25.76,25.76,0,0,1-10-2.12c-.8,0-1.58.07-2.33.07-10.13,0-16.72-4.11-20.68-8a13.3,13.3,0,0,1-2,7.05,10.68,10.68,0,0,1-4,3.65c2.31,8,1.55,18.56-2.38,23.14C59.23,79.1,66.81,84.94,75.7,85.7c10.19.87,17.25-5,20.06-13.86l0,0a61.78,61.78,0,0,0,1.58-14.67C97.36,56.57,97.35,56,97.34,55.49Zm-21.13,7.4a1.3,1.3,0,0,1,1.83.18,3.77,3.77,0,0,0,3.46,1A2.19,2.19,0,0,0,83.27,63,1.74,1.74,0,0,0,83,61.39c-.63-.87-2.7-1.26-4.32-.43A1.31,1.31,0,0,1,77,60.38a1.29,1.29,0,0,1,.58-1.74c2.66-1.36,6.15-.8,7.61,1.22a4.35,4.35,0,0,1,.54,4.1,4.56,4.56,0,0,1-3.76,2.66,7.85,7.85,0,0,1-1.24.1,6.2,6.2,0,0,1-4.66-2A1.3,1.3,0,0,1,76.21,62.89ZM69.92,52.74c1.29,0,2.34,1.76,2.34,3.93s-1.05,3.94-2.34,3.94-2.33-1.76-2.33-3.94S68.64,52.74,69.92,52.74ZM88.78,70.1a10.32,10.32,0,0,1-4.63,6.63l-.12.08a9,9,0,0,1-1.58.68c-.22.07-.45.13-.68.18a9.72,9.72,0,0,1-2.41.28,11.81,11.81,0,0,1-7.2-2.48L72,75.35l-.09-.06a14,14,0,0,1-1.26-1.11,15.71,15.71,0,0,1-2.83-3.72,1.31,1.31,0,0,1,1.3-1.89s2.56.25,5.65.43c1.78.11,3.76.19,5.55.19h.26a41.1,41.1,0,0,0,6.65-.6,1.32,1.32,0,0,1,1.54,1.51Zm.4-8.7c-1.28,0-2.33-1.76-2.33-3.93s1.05-3.92,2.33-3.92,2.33,1.75,2.33,3.92S90.47,61.4,89.18,61.4Z"/><path class="cls-3" d="M102,74.5a1.82,1.82,0,0,1-2.88.87,12.59,12.59,0,0,1-1.27-1.2.41.41,0,0,0,0-.08A62.6,62.6,0,0,0,100,56.67a10.13,10.13,0,0,0,.71-.74,32.61,32.61,0,0,1,2,7.62h0C103.19,69.13,102.61,72.56,102,74.5Z"/><path class="cls-3" d="M100.24,52.09c-.14.22-.28.44-.43.66-.06-1-.15-1.93-.25-2.82-.07-.63-.14-1.23-.23-1.8A21.35,21.35,0,0,0,97.78,42a1.3,1.3,0,0,0-2-.26,1.34,1.34,0,0,0-.18,1.61,17.27,17.27,0,0,1,1.11,4.53c-9-.35-13.81-4.69-16.31-8.42a1.32,1.32,0,0,0-1.82-.35,1.29,1.29,0,0,0-.35,1.8,21.05,21.05,0,0,0,4.51,4.87C67.66,44.84,62.05,34,61.41,32.6A1.29,1.29,0,0,0,59.68,32a1.31,1.31,0,0,0-.63,1.73A22.06,22.06,0,0,0,61.2,37.2c.08.5.85,5.52-1.4,8.78s-4.24,3.92-9.25,3.47A24.14,24.14,0,0,0,46.82,48c-.06-2.79.3-11.79,6.91-19.1,5.68-6.26,14.45-9.81,26.15-10.59h0c11.55,1.47,18.46,7.15,21.78,15.49A20.42,20.42,0,0,1,100.24,52.09Z"/><path class="cls-3" d="M110.41,51.84A21.14,21.14,0,0,1,105,61.39a34.59,34.59,0,0,0-2.28-7.5l-.11-.25a.7.7,0,0,0-.11-.21c.55-.92,1.07-1.93,1.56-3v.05a14.89,14.89,0,0,1,5.17-.38A1.38,1.38,0,0,1,110.41,51.84Z"/><path class="cls-4" d="M47.82,69.65a1.39,1.39,0,0,1,.1.53,15.92,15.92,0,0,1-.46-1.56A9,9,0,0,0,47.82,69.65Z"/><path class="cls-3" d="M188.1,141.66a35.12,35.12,0,0,0-3,7.43c0,.15-.07.31-.11.46a18.72,18.72,0,0,1-6.59-9.74,22.73,22.73,0,0,1,6.43.73l.26.07h0A21.92,21.92,0,0,1,188.1,141.66Z"/><path class="cls-3" d="M193.89,162.25s0,0,0,0h0l0,0a6.56,6.56,0,0,1-2.1,1.72l0,0a2.09,2.09,0,0,1-2.85-.79,14.87,14.87,0,0,1-1.2-2.66,13.78,13.78,0,0,1-.47-1.56,2.81,2.81,0,0,1-.08-.31,13.49,13.49,0,0,1-.27-1.67h0c-.53-5.34,2.19-11.81,3.78-14.53a17.62,17.62,0,0,0,4.65-.16C197.49,150,196.41,158.48,193.89,162.25Z"/><path class="cls-3" d="M184.45,152.31a22.53,22.53,0,0,0-.25,2.38c-9.1-8.35-19.48-22.19-23.07-33.86a4.5,4.5,0,0,1,2.24-5.32,76.87,76.87,0,0,1,29.15-8,30.5,30.5,0,0,0-11.86,14A47,47,0,0,0,177,137.28l-.39,0a1.31,1.31,0,0,0-.9.52,1.37,1.37,0,0,0-.25,1C175.56,139.21,177.09,147.77,184.45,152.31Z"/><path class="cls-3" d="M191.53,117.52A30.48,30.48,0,0,0,184,137.67a25.25,25.25,0,0,0-4.3-.47,44.89,44.89,0,0,1,3.4-14.63c2-4.68,6.8-12.55,16.68-15.39h0c3,0,6.16.11,9.48.4C201.77,109.41,195.85,112.74,191.53,117.52Z"/><path class="cls-3" d="M219.78,162.15l-.23-.11a5.72,5.72,0,0,0-4.61,0l-.16.06a5.16,5.16,0,0,0-1.79,1.28h0l.27.21.12.1.09.07a9.32,9.32,0,0,0,5.66,2,7.3,7.3,0,0,0,1.8-.2l.49-.13a3.8,3.8,0,0,0,.47-.18A3.63,3.63,0,0,0,219.78,162.15Zm0,0-.23-.11a5.72,5.72,0,0,0-4.61,0l-.16.06a5.16,5.16,0,0,0-1.79,1.28h0l.27.21.12.1.09.07a9.32,9.32,0,0,0,5.66,2,7.3,7.3,0,0,0,1.8-.2l.49-.13a3.8,3.8,0,0,0,.47-.18A3.63,3.63,0,0,0,219.78,162.15Zm0,0-.23-.11a5.72,5.72,0,0,0-4.61,0l-.16.06a5.16,5.16,0,0,0-1.79,1.28h0l.27.21.12.1.09.07a9.32,9.32,0,0,0,5.66,2,7.3,7.3,0,0,0,1.8-.2l.49-.13a3.8,3.8,0,0,0,.47-.18A3.63,3.63,0,0,0,219.78,162.15Zm0,0-.23-.11a5.72,5.72,0,0,0-4.61,0l-.16.06a5.16,5.16,0,0,0-1.79,1.28h0l.27.21.12.1.09.07a9.32,9.32,0,0,0,5.66,2,7.3,7.3,0,0,0,1.8-.2l.49-.13a3.8,3.8,0,0,0,.47-.18A3.63,3.63,0,0,0,219.78,162.15Zm17.32-16.29c-.06-1.82-.18-3.52-.34-5a25.76,25.76,0,0,1-10-2.12c-.8.05-1.57.07-2.32.07-10.14,0-16.73-4.11-20.68-8a13.48,13.48,0,0,1-2,7,10.7,10.7,0,0,1-4,3.65c2.31,8,1.55,18.57-2.38,23.14,3.61,4.85,11.19,10.69,20.08,11.45,10.2.87,17.26-4.95,20.07-13.86a.09.09,0,0,1,0,0,61.24,61.24,0,0,0,1.58-14.66C237.12,146.93,237.11,146.39,237.1,145.86ZM216,153.25a1.31,1.31,0,0,1,1.84.18,3.75,3.75,0,0,0,3.45,1,2.19,2.19,0,0,0,1.77-1.06,1.74,1.74,0,0,0-.23-1.59c-.63-.87-2.7-1.26-4.32-.43A1.3,1.3,0,1,1,217.3,149c2.66-1.36,6.15-.8,7.61,1.22a4.35,4.35,0,0,1,.54,4.1,4.56,4.56,0,0,1-3.76,2.66,7.85,7.85,0,0,1-1.24.1,6.2,6.2,0,0,1-4.66-2A1.31,1.31,0,0,1,216,153.25Zm-6.29-10.15c1.29,0,2.34,1.76,2.34,3.94S211,151,209.68,151s-2.32-1.76-2.32-3.93S208.4,143.1,209.68,143.1Zm18.86,17.36a10.32,10.32,0,0,1-4.63,6.63l-.12.08a9,9,0,0,1-1.58.68l-.67.19a10.37,10.37,0,0,1-2.42.27,11.76,11.76,0,0,1-7.19-2.48.71.71,0,0,1-.15-.12l-.1-.06a12.61,12.61,0,0,1-1.25-1.11,15.39,15.39,0,0,1-2.83-3.72,1.3,1.3,0,0,1,.08-1.33,1.33,1.33,0,0,1,1.21-.56s2.56.25,5.66.43c1.78.11,3.75.19,5.54.19h.26A41.48,41.48,0,0,0,227,159a1.3,1.3,0,0,1,1.16.36A1.32,1.32,0,0,1,228.54,160.46Zm.4-8.7c-1.28,0-2.33-1.76-2.33-3.93s1-3.92,2.33-3.92,2.34,1.75,2.34,3.92S230.23,151.76,228.94,151.76Z"/><path class="cls-3" d="M241.75,164.86a1.82,1.82,0,0,1-2.88.87,12.55,12.55,0,0,1-1.26-1.2.24.24,0,0,0,0-.08A62.57,62.57,0,0,0,239.74,147c.24-.23.47-.48.71-.75a32.61,32.61,0,0,1,2,7.62h0C243,159.49,242.37,162.92,241.75,164.86Z"/><path class="cls-3" d="M240,142.45c-.13.22-.28.44-.43.66-.06-1-.15-1.93-.25-2.82-.06-.63-.14-1.23-.23-1.8a21.35,21.35,0,0,0-1.55-6.18,1.3,1.3,0,0,0-2-.26,1.34,1.34,0,0,0-.18,1.61,17.56,17.56,0,0,1,1.12,4.53c-9-.35-13.82-4.69-16.32-8.42a1.31,1.31,0,0,0-2.17,1.46,21.46,21.46,0,0,0,4.51,4.87c-15-.9-20.64-11.78-21.28-13.13a1.29,1.29,0,0,0-1.73-.62,1.31,1.31,0,0,0-.63,1.73,21.63,21.63,0,0,0,2.16,3.48c.07.5.84,5.52-1.41,8.78s-4.24,3.92-9.25,3.47a23.74,23.74,0,0,0-3.73-1.48c-.06-2.79.3-11.79,6.91-19.1,5.68-6.26,14.45-9.81,26.15-10.59h0c11.55,1.47,18.46,7.15,21.78,15.49A20.42,20.42,0,0,1,240,142.45Z"/><path class="cls-3" d="M250.17,142.2a21.21,21.21,0,0,1-5.45,9.56,34.54,34.54,0,0,0-2.28-7.51l-.11-.25a.84.84,0,0,0-.11-.21c.55-.92,1.07-1.92,1.56-2.95v0a15,15,0,0,1,5.18-.38A1.38,1.38,0,0,1,250.17,142.2Z"/><path class="cls-4" d="M187.58,160a1.4,1.4,0,0,1,.11.53,13.78,13.78,0,0,1-.47-1.56A9,9,0,0,0,187.58,160Z"/><path class="cls-3" d="M250.48,40.53H237.86a.54.54,0,0,0-.15,1.06l11.11,3.13a.55.55,0,0,1,.36.73,40.38,40.38,0,0,1-4.39,8,.54.54,0,0,1-.59.21l-8.84-2.4a.54.54,0,0,0-.47,1L241.15,57a.54.54,0,0,1,.07.8,37.7,37.7,0,0,1-6.75,5.57.56.56,0,0,1-.62,0l-6.35-4.68a.53.53,0,0,0-.67,0,29.62,29.62,0,0,1-5.94,4.15.53.53,0,0,0-.22.74l2.75,4.81,1.2,2.11a.55.55,0,0,0,.77.18l5.24-3.41a.54.54,0,0,1,.83.54l-1.75,10.66a.54.54,0,0,1-1,.12l-.9-2.2a.53.53,0,0,0-.51-.33l-8.76.28a.54.54,0,0,1-.31-1L221,73.52a.53.53,0,0,0,.17-.72l-1.91-3.36-2.48-4.36a.53.53,0,0,0-.63-.24,32.7,32.7,0,0,1-4.06,1.06.53.53,0,0,0-.42.39l-1.08,4.27L207.05,84.7a.64.64,0,0,1-1.25,0l-3.56-14.14-1.08-4.27a.51.51,0,0,0-.42-.39,32.7,32.7,0,0,1-4.06-1.06.53.53,0,0,0-.63.24l-2.48,4.36-1.91,3.36a.55.55,0,0,0,.17.72l2.81,1.82a.54.54,0,0,1-.31,1l-8.75-.28a.53.53,0,0,0-.51.33l-.9,2.2a.54.54,0,0,1-1-.12L181.39,67.8a.54.54,0,0,1,.82-.54l5.25,3.41a.53.53,0,0,0,.76-.18l1.2-2.11,2.75-4.81a.53.53,0,0,0-.22-.74A29.55,29.55,0,0,1,186,58.68a.53.53,0,0,0-.67,0L179,63.32a.56.56,0,0,1-.62,0,37.63,37.63,0,0,1-6.74-5.57.54.54,0,0,1,.06-.8L178,52.2a.54.54,0,0,0-.47-1l-8.84,2.4a.55.55,0,0,1-.59-.21,40.9,40.9,0,0,1-4.39-8,.55.55,0,0,1,.36-.73l11.11-3.13a.54.54,0,0,0-.15-1.06H162.37a.56.56,0,0,1-.53-.39,54.45,54.45,0,0,1-1.8-10.6.54.54,0,0,1,.62-.58l21.17,3.14a.53.53,0,0,0,.51-.23,23.8,23.8,0,0,1,6.41-6.14.54.54,0,0,1,.77.72,27,27,0,0,0-3.5,13c0,9.65,6.21,17.7,16.13,19.49a.55.55,0,0,0,.56-.25L206,53.58a.54.54,0,0,1,.91,0l3.26,5.07a.54.54,0,0,0,.55.25c9.92-1.79,16.13-9.84,16.13-19.49a27,27,0,0,0-3.49-13,.54.54,0,0,1,.77-.72,23.76,23.76,0,0,1,6.4,6.14.54.54,0,0,0,.52.23L252.19,29a.55.55,0,0,1,.62.58,56,56,0,0,1-1.8,10.6A.55.55,0,0,1,250.48,40.53Z"/><path class="cls-3" d="M206,22.65a.54.54,0,0,1,.88,0L210.64,28l3.62,5.1a.54.54,0,0,1-.44.85H199a.54.54,0,0,1-.44-.85L202.2,28Z"/><path class="cls-3" d="M197.19,35.05a.54.54,0,0,1,.88,0l3.78,5.33,3.62,5.1a.54.54,0,0,1-.44.85H190.24a.54.54,0,0,1-.44-.85l3.61-5.1Z"/><path class="cls-3" d="M214.77,35.05a.54.54,0,0,1,.88,0l3.78,5.33,3.62,5.1a.54.54,0,0,1-.44.85H207.82a.54.54,0,0,1-.44-.85l3.62-5.1Z"/><path class="cls-3" d="M116.83,127.38H104.21a.54.54,0,0,0-.14,1.06l11.1,3.13a.54.54,0,0,1,.36.73,40.66,40.66,0,0,1-4.39,8,.56.56,0,0,1-.59.21l-8.84-2.41a.54.54,0,0,0-.47.95l6.26,4.77a.55.55,0,0,1,.07.81,37.65,37.65,0,0,1-6.75,5.56.53.53,0,0,1-.62,0l-6.34-4.67a.53.53,0,0,0-.68,0,28.91,28.91,0,0,1-5.94,4.14.54.54,0,0,0-.22.74l2.75,4.82,1.21,2.1a.54.54,0,0,0,.76.19L97,154.11a.54.54,0,0,1,.83.54l-1.74,10.66a.54.54,0,0,1-1,.11l-.89-2.19a.54.54,0,0,0-.52-.33l-8.76.28a.54.54,0,0,1-.31-1l2.81-1.83a.54.54,0,0,0,.18-.72l-1.92-3.36-2.48-4.35a.53.53,0,0,0-.63-.24,31,31,0,0,1-4.06,1.05.54.54,0,0,0-.42.39L77,157.41,73.4,171.54a.64.64,0,0,1-1.25,0l-3.56-14.13-1.08-4.28a.53.53,0,0,0-.42-.39A31,31,0,0,1,63,151.69a.53.53,0,0,0-.63.24l-2.47,4.35L58,159.64a.54.54,0,0,0,.18.72L61,162.19a.54.54,0,0,1-.31,1l-8.76-.28a.52.52,0,0,0-.51.33l-.9,2.2a.54.54,0,0,1-1-.12l-1.75-10.66a.53.53,0,0,1,.82-.54l5.25,3.41a.54.54,0,0,0,.76-.19l1.2-2.1,2.75-4.82a.53.53,0,0,0-.21-.74,28.91,28.91,0,0,1-5.94-4.14.52.52,0,0,0-.67,0l-6.36,4.67a.53.53,0,0,1-.62,0A37.58,37.58,0,0,1,38,144.62a.55.55,0,0,1,.06-.81L44.3,139a.54.54,0,0,0-.47-.95L35,140.5a.56.56,0,0,1-.59-.21,41.15,41.15,0,0,1-4.38-8,.54.54,0,0,1,.35-.73l11.11-3.13a.54.54,0,0,0-.15-1.06H28.72a.53.53,0,0,1-.52-.4,53.58,53.58,0,0,1-1.81-10.6.54.54,0,0,1,.62-.57l21.17,3.13a.51.51,0,0,0,.51-.22,23.65,23.65,0,0,1,6.41-6.14.54.54,0,0,1,.77.72,27,27,0,0,0-3.5,13c0,9.66,6.21,17.7,16.13,19.49a.56.56,0,0,0,.56-.24l3.26-5.08a.54.54,0,0,1,.91,0l3.26,5.08a.55.55,0,0,0,.55.24C87,144,93.17,135.91,93.17,126.25a27,27,0,0,0-3.49-13,.54.54,0,0,1,.77-.72,23.46,23.46,0,0,1,6.4,6.14.53.53,0,0,0,.52.22l21.17-3.13a.54.54,0,0,1,.62.57,55.86,55.86,0,0,1-1.8,10.6A.55.55,0,0,1,116.83,127.38Z"/><path class="cls-3" d="M72.33,109.5a.54.54,0,0,1,.88,0L77,114.83l3.62,5.1a.54.54,0,0,1-.44.85H65.38a.54.54,0,0,1-.44-.85l3.61-5.1Z"/><path class="cls-3" d="M63.54,121.9a.53.53,0,0,1,.88,0l3.78,5.32,3.62,5.1a.54.54,0,0,1-.44.85H56.59a.54.54,0,0,1-.44-.85l3.61-5.1Z"/><path class="cls-3" d="M81.13,121.9a.53.53,0,0,1,.88,0l3.77,5.32,3.62,5.1a.54.54,0,0,1-.44.85H74.17a.54.54,0,0,1-.44-.85l3.62-5.1Z"/></g></g></svg>