<svg xmlns="http://www.w3.org/2000/svg" viewBox="0 0 198.43 198.43"><defs><style>.cls-1{isolation:isolate;}.cls-2{fill:#f9f2d8;}.cls-3,.cls-4{fill:#f2e2c7;}.cls-4{mix-blend-mode:multiply;}</style></defs><g class="cls-1"><g id="Layer_1" data-name="Layer 1"><rect class="cls-2" width="198.42" height="198.42"/><path class="cls-3" d="M180.79,98.43a35.59,35.59,0,0,0-3,7.5l-.12.47A18.92,18.92,0,0,1,171,96.57a22.83,22.83,0,0,1,6.49.73l.26.07h0A21.75,21.75,0,0,1,180.79,98.43Z"/><path class="cls-3" d="M186.64,119.21s0,0,0,0a0,0,0,0,1,0,0l0,0a6.63,6.63,0,0,1-2.12,1.73.06.06,0,0,1-.05,0,2.11,2.11,0,0,1-2.88-.79,15.94,15.94,0,0,1-1.21-2.69,13.31,13.31,0,0,1-.47-1.57,2.81,2.81,0,0,1-.08-.31,11.91,11.91,0,0,1-.27-1.68l0,0c-.53-5.39,2.21-11.91,3.82-14.66a18,18,0,0,0,4.7-.16C190.28,106.88,189.18,115.4,186.64,119.21Z"/><path class="cls-3" d="M177.11,109.18a23.2,23.2,0,0,0-.25,2.4c-9.19-8.42-19.66-22.39-23.29-34.17A4.56,4.56,0,0,1,155.84,72a77.68,77.68,0,0,1,29.41-8.09,30.81,30.81,0,0,0-12,14.17A47.51,47.51,0,0,0,169.62,94l-.39,0a1.33,1.33,0,0,0-.91.52,1.36,1.36,0,0,0-.25,1C168.14,96,169.69,104.6,177.11,109.18Z"/><path class="cls-3" d="M198.42,63.78V65.1a32.78,32.78,0,0,0-14.16,9A30.76,30.76,0,0,0,176.6,94.4a25.6,25.6,0,0,0-4.34-.47,45.19,45.19,0,0,1,3.44-14.77c2-4.72,6.86-12.66,16.83-15.53h0C194.44,63.62,196.39,63.66,198.42,63.78Z"/><path class="cls-3" d="M196.59,87.44a13.4,13.4,0,0,1-2.05,7.11,10.78,10.78,0,0,1-4,3.68c2.33,8.09,1.56,18.74-2.41,23.36a31,31,0,0,0,10.28,8.55V89.07C197.76,88.54,197.15,88,196.59,87.44Z"/><path class="cls-3" d="M198.42,67.89V85.54a22.09,22.09,0,0,1-4.43-6,1.32,1.32,0,1,0-2.38,1.13,21.84,21.84,0,0,0,2.17,3.51c.08.51.85,5.57-1.42,8.86s-4.28,4-9.33,3.5a23.65,23.65,0,0,0-3.77-1.49c-.06-2.82.3-11.9,7-19.28A29.7,29.7,0,0,1,198.42,67.89Z"/><path class="cls-4" d="M180.27,117a1.26,1.26,0,0,1,.11.53,13.31,13.31,0,0,1-.47-1.57A9.11,9.11,0,0,0,180.27,117Z"/><path class="cls-3" d="M3.68,64c-1.27.31-2.5.67-3.68,1.07V63.78C1.2,63.83,2.43,63.92,3.68,64Z"/><path class="cls-3" d="M14.34,119.11l-.23-.12a5.85,5.85,0,0,0-4.66,0L9.3,119a5,5,0,0,0-1.81,1.29h0l.27.21.13.1.09.07a9.33,9.33,0,0,0,5.71,2,7.46,7.46,0,0,0,1.82-.2l.49-.13c.16-.06.32-.11.47-.18A3.64,3.64,0,0,0,14.34,119.11Zm0,0-.23-.12a5.85,5.85,0,0,0-4.66,0L9.3,119a5,5,0,0,0-1.81,1.29h0l.27.21.13.1.09.07a9.33,9.33,0,0,0,5.71,2,7.46,7.46,0,0,0,1.82-.2l.49-.13c.16-.06.32-.11.47-.18A3.64,3.64,0,0,0,14.34,119.11Zm0,0-.23-.12a5.85,5.85,0,0,0-4.66,0L9.3,119a5,5,0,0,0-1.81,1.29h0l.27.21.13.1.09.07a9.33,9.33,0,0,0,5.71,2,7.46,7.46,0,0,0,1.82-.2l.49-.13c.16-.06.32-.11.47-.18A3.64,3.64,0,0,0,14.34,119.11Zm17.48-16.45c-.06-1.83-.18-3.55-.34-5.08a26.05,26.05,0,0,1-10.1-2.14c-.8,0-1.58.07-2.34.07-8.8,0-15-3.07-19-6.44v41.07a26.33,26.33,0,0,0,10,3c10.29.88,17.42-5,20.25-14l0,0a61.93,61.93,0,0,0,1.59-14.8C31.84,103.75,31.83,103.2,31.82,102.66ZM10.5,110.12a1.32,1.32,0,0,1,1.85.19,3.84,3.84,0,0,0,3.49,1,2.2,2.2,0,0,0,1.78-1.07,1.73,1.73,0,0,0-.23-1.61c-.63-.87-2.72-1.27-4.36-.43a1.32,1.32,0,0,1-1.19-2.35c2.69-1.36,6.21-.8,7.68,1.23a4.39,4.39,0,0,1,.54,4.15,4.56,4.56,0,0,1-3.79,2.68A7.88,7.88,0,0,1,15,114a6.24,6.24,0,0,1-4.7-2A1.33,1.33,0,0,1,10.5,110.12ZM4.15,99.89c1.3,0,2.36,1.77,2.36,4s-1.06,4-2.36,4-2.35-1.78-2.35-4S2.85,99.89,4.15,99.89Zm19,17.51a10.31,10.31,0,0,1-4.66,6.69.57.57,0,0,1-.13.08,8.22,8.22,0,0,1-1.6.69l-.68.19a10.46,10.46,0,0,1-2.43.27,11.91,11.91,0,0,1-7.27-2.5l-.15-.11-.09-.07a14.45,14.45,0,0,1-1.27-1.12,15.63,15.63,0,0,1-2.85-3.75,1.32,1.32,0,0,1,.08-1.34,1.33,1.33,0,0,1,1.22-.57s2.58.25,5.71.44c1.8.1,3.79.18,5.6.18h.26a40.55,40.55,0,0,0,6.71-.6,1.32,1.32,0,0,1,1.18.36A1.31,1.31,0,0,1,23.18,117.4Zm.41-8.78c-1.3,0-2.35-1.77-2.35-4s1.05-4,2.35-4,2.35,1.77,2.35,4S24.89,108.62,23.59,108.62Zm-9.25,10.49-.23-.12a5.85,5.85,0,0,0-4.66,0L9.3,119a5,5,0,0,0-1.81,1.29h0l.27.21.13.1.09.07a9.33,9.33,0,0,0,5.71,2,7.46,7.46,0,0,0,1.82-.2l.49-.13c.16-.06.32-.11.47-.18A3.64,3.64,0,0,0,14.34,119.11Zm0,0-.23-.12a5.85,5.85,0,0,0-4.66,0L9.3,119a5,5,0,0,0-1.81,1.29h0l.27.21.13.1.09.07a9.33,9.33,0,0,0,5.71,2,7.46,7.46,0,0,0,1.82-.2l.49-.13c.16-.06.32-.11.47-.18A3.64,3.64,0,0,0,14.34,119.11Zm0,0-.23-.12a5.85,5.85,0,0,0-4.66,0L9.3,119a5,5,0,0,0-1.81,1.29h0l.27.21.13.1.09.07a9.33,9.33,0,0,0,5.71,2,7.46,7.46,0,0,0,1.82-.2l.49-.13c.16-.06.32-.11.47-.18A3.64,3.64,0,0,0,14.34,119.11Zm0,0-.23-.12a5.85,5.85,0,0,0-4.66,0L9.3,119a5,5,0,0,0-1.81,1.29h0l.27.21.13.1.09.07a9.33,9.33,0,0,0,5.71,2,7.46,7.46,0,0,0,1.82-.2l.49-.13c.16-.06.32-.11.47-.18A3.64,3.64,0,0,0,14.34,119.11Zm0,0-.23-.12a5.85,5.85,0,0,0-4.66,0L9.3,119a5,5,0,0,0-1.81,1.29h0l.27.21.13.1.09.07a9.33,9.33,0,0,0,5.71,2,7.46,7.46,0,0,0,1.82-.2l.49-.13c.16-.06.32-.11.47-.18A3.64,3.64,0,0,0,14.34,119.11Zm0,0-.23-.12a5.85,5.85,0,0,0-4.66,0L9.3,119a5,5,0,0,0-1.81,1.29h0l.27.21.13.1.09.07a9.33,9.33,0,0,0,5.71,2,7.46,7.46,0,0,0,1.82-.2l.49-.13c.16-.06.32-.11.47-.18A3.64,3.64,0,0,0,14.34,119.11Zm0,0-.23-.12a5.85,5.85,0,0,0-4.66,0L9.3,119a5,5,0,0,0-1.81,1.29h0l.27.21.13.1.09.07a9.33,9.33,0,0,0,5.71,2,7.46,7.46,0,0,0,1.82-.2l.49-.13c.16-.06.32-.11.47-.18A3.64,3.64,0,0,0,14.34,119.11Z"/><path class="cls-3" d="M36.52,121.85a1.84,1.84,0,0,1-2.91.87,11.7,11.7,0,0,1-1.27-1.21.24.24,0,0,0,0-.08,63.35,63.35,0,0,0,2.13-17.57c.24-.23.48-.48.72-.76a33.06,33.06,0,0,1,2,7.69h0C37.73,116.43,37.15,119.89,36.52,121.85Z"/><path class="cls-3" d="M34.75,99.22c-.14.23-.28.45-.43.67-.06-1-.15-2-.26-2.84-.06-.64-.14-1.24-.23-1.82A21.65,21.65,0,0,0,32.27,89a1.31,1.31,0,0,0-2.07-.26A1.32,1.32,0,0,0,30,90.35a17.47,17.47,0,0,1,1.12,4.57c-9.06-.34-13.94-4.73-16.47-8.49a1.31,1.31,0,1,0-2.18,1.47A21.2,21.2,0,0,0,17,92.81,25.82,25.82,0,0,1,0,85.55V67.89A51.17,51.17,0,0,1,14.2,65.1h0c11.65,1.48,18.63,7.22,22,15.63A20.59,20.59,0,0,1,34.75,99.22Z"/><path class="cls-3" d="M45,99a21.42,21.42,0,0,1-5.5,9.65,34.71,34.71,0,0,0-2.3-7.57l-.11-.26c0-.07-.07-.15-.11-.21.55-.93,1.08-1.94,1.57-3v0a15.18,15.18,0,0,1,5.22-.38A1.39,1.39,0,0,1,45,99Z"/><path class="cls-3" d="M81.58,197.78c-.11.2-.23.41-.35.64H72.74a21.23,21.23,0,0,1-.93-2.51,23.16,23.16,0,0,1,6.49.74l.26.07h0A22.73,22.73,0,0,1,81.58,197.78Z"/><path class="cls-3" d="M86,163.29a30.84,30.84,0,0,0-12,14.17,47.51,47.51,0,0,0-3.67,15.9l-.38,0a1.29,1.29,0,0,0-.91.52,1.31,1.31,0,0,0-.25,1,19.17,19.17,0,0,0,1,3.49H66.34c-5.27-6.91-9.83-14.67-12-21.66a4.54,4.54,0,0,1,2.27-5.38A77.57,77.57,0,0,1,86,163.29Z"/><path class="cls-3" d="M85.05,173.41a30.8,30.8,0,0,0-7.65,20.35,25.85,25.85,0,0,0-4.35-.48,45.25,45.25,0,0,1,3.44-14.77c2-4.72,6.86-12.66,16.83-15.53h0c3,0,6.21.11,9.56.4C95.38,165.23,89.4,168.59,85.05,173.41Z"/><path class="cls-3" d="M130.7,196.93a25.79,25.79,0,0,1-10.1-2.14c-.81.05-1.59.07-2.35.07-10.23,0-16.87-4.14-20.87-8.07a13.32,13.32,0,0,1-2.06,7.11,10.71,10.71,0,0,1-4,3.69c.08.27.15.55.22.83h39.27C130.79,197.9,130.75,197.41,130.7,196.93Z"/><path class="cls-3" d="M134.06,198.42h-.59c-.05-.7-.12-1.37-.19-2s-.15-1.24-.23-1.82a21.55,21.55,0,0,0-1.57-6.24,1.32,1.32,0,0,0-2.07-.26,1.34,1.34,0,0,0-.18,1.63,17.11,17.11,0,0,1,1.13,4.57c-9.07-.35-14-4.74-16.47-8.5a1.32,1.32,0,0,0-1.83-.35,1.3,1.3,0,0,0-.36,1.82,21.2,21.2,0,0,0,4.55,4.91c-15.17-.9-20.83-11.89-21.47-13.25a1.31,1.31,0,0,0-1.75-.62,1.32,1.32,0,0,0-.64,1.75,23.07,23.07,0,0,0,2.18,3.51c.08.51.85,5.57-1.42,8.86s-4.28,4-9.34,3.5A24.85,24.85,0,0,0,80,194.42c-.06-2.82.31-11.9,7-19.28,5.72-6.32,14.58-9.9,26.38-10.69h0c11.65,1.48,18.63,7.22,22,15.64A20.63,20.63,0,0,1,134.06,198.42Z"/><path class="cls-3" d="M144.23,198.32a.3.3,0,0,0,0,.1H137c.26-.48.5-1,.74-1.47v0a15.16,15.16,0,0,1,5.22-.38A1.4,1.4,0,0,1,144.23,198.32Z"/><path class="cls-3" d="M129.78,90H121a.38.38,0,0,0-.1.74l7.71,2.17a.39.39,0,0,1,.25.51,28.58,28.58,0,0,1-3,5.54.38.38,0,0,1-.41.15l-6.13-1.67a.38.38,0,0,0-.33.66l4.35,3.31a.38.38,0,0,1,0,.56,26.29,26.29,0,0,1-4.68,3.86.4.4,0,0,1-.43,0l-4.4-3.24a.36.36,0,0,0-.47,0,20.12,20.12,0,0,1-4.12,2.88.36.36,0,0,0-.15.51l1.91,3.34.83,1.47a.38.38,0,0,0,.53.12l3.64-2.36a.37.37,0,0,1,.57.37l-1.21,7.4a.37.37,0,0,1-.71.08l-.63-1.52a.38.38,0,0,0-.35-.24l-6.08.2a.38.38,0,0,1-.22-.69l2-1.26a.37.37,0,0,0,.12-.5l-1.32-2.33-1.72-3a.36.36,0,0,0-.44-.17,22.44,22.44,0,0,1-2.82.73.38.38,0,0,0-.29.27l-.75,3-2.46,9.8a.45.45,0,0,1-.87,0l-2.47-9.8-.75-3a.35.35,0,0,0-.29-.27,21.85,21.85,0,0,1-2.81-.73A.36.36,0,0,0,92,107l-1.72,3L89,112.39a.38.38,0,0,0,.12.5l2,1.26a.37.37,0,0,1-.21.69l-6.08-.2a.38.38,0,0,0-.35.24l-.63,1.52a.37.37,0,0,1-.71-.08l-1.22-7.4a.38.38,0,0,1,.58-.37l3.64,2.36a.36.36,0,0,0,.52-.12l.84-1.47L89.33,106a.38.38,0,0,0-.15-.51,19.93,19.93,0,0,1-4.12-2.87.36.36,0,0,0-.47,0l-4.41,3.24a.39.39,0,0,1-.43,0A27,27,0,0,1,75.07,102a.38.38,0,0,1,.05-.56l4.34-3.31a.37.37,0,0,0-.32-.66L73,99.11a.39.39,0,0,1-.41-.15,28.54,28.54,0,0,1-3-5.54.38.38,0,0,1,.25-.51l7.7-2.17a.38.38,0,0,0-.1-.74H68.65a.37.37,0,0,1-.36-.27A37.48,37.48,0,0,1,67,82.38a.38.38,0,0,1,.43-.4l14.69,2.17a.38.38,0,0,0,.36-.15A16.31,16.31,0,0,1,87,79.73a.38.38,0,0,1,.54.51,18.69,18.69,0,0,0-2.43,9,13.34,13.34,0,0,0,11.19,13.52.37.37,0,0,0,.38-.16l2.27-3.53a.37.37,0,0,1,.63,0l2.26,3.53a.39.39,0,0,0,.39.16,13.34,13.34,0,0,0,11.19-13.52,18.69,18.69,0,0,0-2.43-9,.38.38,0,0,1,.54-.5A16.27,16.27,0,0,1,115.92,84a.38.38,0,0,0,.36.15L131,82a.37.37,0,0,1,.43.4,37.48,37.48,0,0,1-1.25,7.35A.37.37,0,0,1,129.78,90Z"/><path class="cls-3" d="M98.91,77.6a.37.37,0,0,1,.61,0l2.62,3.7,2.51,3.53a.38.38,0,0,1-.31.59H94.08a.37.37,0,0,1-.3-.59l2.51-3.53Z"/><path class="cls-3" d="M92.81,86.2a.37.37,0,0,1,.61,0L96,89.9l2.51,3.53a.38.38,0,0,1-.31.59H88a.37.37,0,0,1-.3-.59l2.51-3.53Z"/><path class="cls-3" d="M105,86.2a.37.37,0,0,1,.61,0l2.62,3.7,2.51,3.53a.38.38,0,0,1-.31.59H100.18a.37.37,0,0,1-.3-.59l2.51-3.53Z"/><path class="cls-3" d="M24.09,2.79a.37.37,0,0,1,.05.55,25.91,25.91,0,0,1-4.68,3.87.4.4,0,0,1-.43,0L14.63,4a.36.36,0,0,0-.47,0A20.12,20.12,0,0,1,10,6.85a.36.36,0,0,0-.15.51l1.9,3.34.84,1.47a.38.38,0,0,0,.53.12L16.8,9.93a.37.37,0,0,1,.57.37l-1.21,7.4a.38.38,0,0,1-.72.08l-.62-1.52a.38.38,0,0,0-.36-.24l-6.07.2a.38.38,0,0,1-.22-.69l1.95-1.26a.37.37,0,0,0,.12-.5L8.91,11.44l-1.71-3a.36.36,0,0,0-.44-.17A22.44,22.44,0,0,1,3.94,9a.37.37,0,0,0-.29.27l-.75,3L.44,22a.44.44,0,0,1-.44.34V.26A.36.36,0,0,1,.32.43L2.58,4A.37.37,0,0,0,3,4.12,13.55,13.55,0,0,0,10.63,0h9.8Z"/><path class="cls-3" d="M26.85,0a4,4,0,0,1-.23.34.39.39,0,0,1-.41.15L24.41,0Z"/><path class="cls-3" d="M171.57,0H174l-1.8.49a.39.39,0,0,1-.41-.15A4,4,0,0,1,171.57,0Z"/><path class="cls-3" d="M198.42.26v22.1A.43.43,0,0,1,198,22l-2.47-9.8-.75-3a.37.37,0,0,0-.29-.27,22.44,22.44,0,0,1-2.82-.73.36.36,0,0,0-.44.17l-1.71,3-1.33,2.33a.37.37,0,0,0,.12.5l1.95,1.26a.38.38,0,0,1-.22.69L184,16a.39.39,0,0,0-.36.24L183,17.78a.37.37,0,0,1-.71-.08l-1.22-7.4a.37.37,0,0,1,.57-.37l3.64,2.36a.38.38,0,0,0,.53-.12l.84-1.47,1.9-3.34a.36.36,0,0,0-.15-.51A19.78,19.78,0,0,1,184.27,4a.36.36,0,0,0-.47,0l-4.41,3.24a.38.38,0,0,1-.43,0,25.79,25.79,0,0,1-4.68-3.86.37.37,0,0,1,.05-.55L178,0h9.8a13.55,13.55,0,0,0,7.67,4.12.37.37,0,0,0,.38-.16L198.11.43A.35.35,0,0,1,198.42.26Z"/><path class="cls-3" d="M81.23,0a35.79,35.79,0,0,0-2.65,6.85l-.12.47A17.75,17.75,0,0,1,72.74,0Z"/><path class="cls-3" d="M87.42,20.13l0,0h0l0,0a6.41,6.41,0,0,1-2.11,1.74l0,0a2.11,2.11,0,0,1-2.88-.79,16.3,16.3,0,0,1-1.21-2.69,13.89,13.89,0,0,1-.47-1.57c0-.11-.06-.21-.08-.31a13.17,13.17,0,0,1-.28-1.69h0C79.8,9.44,82.54,2.91,84.15.16A18,18,0,0,0,88.85,0C91.06,7.81,90,16.33,87.42,20.13Z"/><path class="cls-3" d="M77.89,10.1a23.21,23.21,0,0,0-.24,2.4A96.45,96.45,0,0,1,66.35,0h3.52A20.31,20.31,0,0,0,77.89,10.1Z"/><path class="cls-3" d="M113.56,20l-.23-.12a5.84,5.84,0,0,0-4.66,0l-.16.07a5.05,5.05,0,0,0-1.81,1.29l.26.22.13.1.09.06a9.34,9.34,0,0,0,5.71,2,7.45,7.45,0,0,0,1.82-.21,4.93,4.93,0,0,0,.49-.13c.17-.05.32-.11.48-.17A3.66,3.66,0,0,0,113.56,20Zm0,0-.23-.12a5.84,5.84,0,0,0-4.66,0l-.16.07a5.05,5.05,0,0,0-1.81,1.29l.26.22.13.1.09.06a9.34,9.34,0,0,0,5.71,2,7.45,7.45,0,0,0,1.82-.21,4.93,4.93,0,0,0,.49-.13c.17-.05.32-.11.48-.17A3.66,3.66,0,0,0,113.56,20Zm0,0-.23-.12a5.84,5.84,0,0,0-4.66,0l-.16.07a5.05,5.05,0,0,0-1.81,1.29l.26.22.13.1.09.06a9.34,9.34,0,0,0,5.71,2,7.45,7.45,0,0,0,1.82-.21,4.93,4.93,0,0,0,.49-.13c.17-.05.32-.11.48-.17A3.66,3.66,0,0,0,113.56,20Zm0,0-.23-.12a5.84,5.84,0,0,0-4.66,0l-.16.07a5.05,5.05,0,0,0-1.81,1.29l.26.22.13.1.09.06a9.34,9.34,0,0,0,5.71,2,7.45,7.45,0,0,0,1.82-.21,4.93,4.93,0,0,0,.49-.13c.17-.05.32-.11.48-.17A3.66,3.66,0,0,0,113.56,20Zm0,0-.23-.12a5.84,5.84,0,0,0-4.66,0l-.16.07a5.05,5.05,0,0,0-1.81,1.29l.26.22.13.1.09.06a9.34,9.34,0,0,0,5.71,2,7.45,7.45,0,0,0,1.82-.21,4.93,4.93,0,0,0,.49-.13c.17-.05.32-.11.48-.17A3.66,3.66,0,0,0,113.56,20Zm0,0-.23-.12a5.84,5.84,0,0,0-4.66,0l-.16.07a5.05,5.05,0,0,0-1.81,1.29l.26.22.13.1.09.06a9.34,9.34,0,0,0,5.71,2,7.45,7.45,0,0,0,1.82-.21,4.93,4.93,0,0,0,.49-.13c.17-.05.32-.11.48-.17A3.66,3.66,0,0,0,113.56,20ZM131,3.59c0-1.26-.11-2.46-.2-3.59H91.57c2,8,1.19,18.06-2.64,22.52,3.64,4.89,11.3,10.78,20.26,11.55,10.29.89,17.42-5,20.26-14a.11.11,0,0,1,0,0,61.32,61.32,0,0,0,1.59-14.8C131.05,4.67,131.05,4.13,131,3.59Zm-21.32,7.46a1.32,1.32,0,0,1,1.85.18,3.81,3.81,0,0,0,3.49,1,2.21,2.21,0,0,0,1.78-1.08,1.71,1.71,0,0,0-.23-1.6c-.63-.88-2.72-1.27-4.36-.44a1.31,1.31,0,1,1-1.19-2.34c2.69-1.37,6.21-.8,7.68,1.23a4.39,4.39,0,0,1,.54,4.15,4.56,4.56,0,0,1-3.79,2.67,6.9,6.9,0,0,1-1.25.11,6.24,6.24,0,0,1-4.7-2A1.33,1.33,0,0,1,109.71,11.05ZM103.36.81c1.31,0,2.36,1.78,2.36,4s-1,4-2.36,4S101,7,101,4.78,102.07.81,103.36.81Zm19,17.52A10.35,10.35,0,0,1,117.73,25l-.13.08a7.63,7.63,0,0,1-1.6.68,6.55,6.55,0,0,1-.67.19,10,10,0,0,1-2.44.28,11.86,11.86,0,0,1-7.26-2.5l-.15-.12-.1-.06a16.05,16.05,0,0,1-1.27-1.12,16.3,16.3,0,0,1-2.85-3.75,1.31,1.31,0,0,1,1.3-1.91s2.59.25,5.71.43c1.8.11,3.79.19,5.6.19h.26a43.72,43.72,0,0,0,6.72-.6,1.28,1.28,0,0,1,1.17.35A1.31,1.31,0,0,1,122.39,18.33Zm.41-8.78c-1.29,0-2.35-1.78-2.35-4s1.06-4,2.35-4,2.36,1.77,2.36,4S124.1,9.55,122.8,9.55ZM113.56,20l-.23-.12a5.84,5.84,0,0,0-4.66,0l-.16.07a5.05,5.05,0,0,0-1.81,1.29l.26.22.13.1.09.06a9.34,9.34,0,0,0,5.71,2,7.45,7.45,0,0,0,1.82-.21,4.93,4.93,0,0,0,.49-.13c.17-.05.32-.11.48-.17A3.66,3.66,0,0,0,113.56,20Zm0,0-.23-.12a5.84,5.84,0,0,0-4.66,0l-.16.07a5.05,5.05,0,0,0-1.81,1.29l.26.22.13.1.09.06a9.34,9.34,0,0,0,5.71,2,7.45,7.45,0,0,0,1.82-.21,4.93,4.93,0,0,0,.49-.13c.17-.05.32-.11.48-.17A3.66,3.66,0,0,0,113.56,20Z"/><path class="cls-3" d="M135.73,22.77a1.83,1.83,0,0,1-2.9.88,12.8,12.8,0,0,1-1.28-1.21l0-.08A63,63,0,0,0,133.7,4.78a8.62,8.62,0,0,0,.72-.75,32.42,32.42,0,0,1,2,7.69h0C137,17.36,136.36,20.81,135.73,22.77Z"/><path class="cls-3" d="M134.06,0,134,.15c-.14.23-.29.45-.44.67L133.47,0Z"/><path class="cls-3" d="M144.21,0a21.57,21.57,0,0,1-5.48,9.54A35.29,35.29,0,0,0,136.43,2l-.11-.26a2.25,2.25,0,0,0-.12-.21q.44-.72.84-1.5Z"/><path class="cls-4" d="M81.06,17.88a1.4,1.4,0,0,1,.11.53,13.89,13.89,0,0,1-.47-1.57A9.84,9.84,0,0,0,81.06,17.88Z"/><path class="cls-3" d="M32.13,182.18a37.48,37.48,0,0,1-1.25,7.35.36.36,0,0,1-.36.28H21.76a.37.37,0,0,0-.1.73l7.71,2.17a.38.38,0,0,1,.24.51,27.11,27.11,0,0,1-2.81,5.2H24.36L20,197.24a.38.38,0,0,0-.33.66l.68.52h-9.8A13.74,13.74,0,0,0,14.11,189a18.73,18.73,0,0,0-2.43-9,.37.37,0,0,1,.53-.5,16.47,16.47,0,0,1,4.45,4.26A.37.37,0,0,0,17,184l14.68-2.18A.38.38,0,0,1,32.13,182.18Z"/><path class="cls-3" d="M5.08,185.23H0v-8a.35.35,0,0,1,.26.15l2.62,3.69,2.51,3.54A.38.38,0,0,1,5.08,185.23Z"/><path class="cls-3" d="M5.75,186a.37.37,0,0,1,.61,0L9,189.7l2.51,3.54a.37.37,0,0,1-.3.59H.92a.37.37,0,0,1-.3-.59l2.51-3.54Z"/><path class="cls-3" d="M178.62,197.9a.37.37,0,0,0-.32-.66L174,198.42h-2.44a27.67,27.67,0,0,1-2.81-5.2.38.38,0,0,1,.25-.51l7.7-2.17a.37.37,0,0,0-.1-.73h-8.75a.36.36,0,0,1-.36-.28,37.48,37.48,0,0,1-1.26-7.35.38.38,0,0,1,.43-.4L181.31,184a.38.38,0,0,0,.36-.16,16.42,16.42,0,0,1,4.44-4.26.37.37,0,0,1,.53.5,18.83,18.83,0,0,0-2.42,9,13.77,13.77,0,0,0,3.51,9.39h-9.79Z"/><path class="cls-3" d="M198.42,177.26v8h-5.18a.37.37,0,0,1-.3-.59l2.51-3.54,2.62-3.69A.36.36,0,0,1,198.42,177.26Z"/><path class="cls-3" d="M192,186a.37.37,0,0,1,.61,0l2.62,3.69,2.51,3.54a.37.37,0,0,1-.3.59H187.15a.38.38,0,0,1-.31-.59l2.51-3.54Z"/></g></g></svg>