<svg id="Layer_1" data-name="Layer 1" xmlns="http://www.w3.org/2000/svg" viewBox="0 0 805.11 679.19"><defs><style>.cls-1,.cls-19,.cls-2{fill:#fff;}.cls-2{font-size:85px;font-family:Collier-Light, Collier;font-weight:300;}.cls-3{letter-spacing:-0.06em;}.cls-4{letter-spacing:-0.08em;}.cls-5{letter-spacing:-0.07em;}.cls-6{letter-spacing:-0.09em;}.cls-7{letter-spacing:-0.1em;}.cls-8{letter-spacing:-0.09em;}.cls-9{letter-spacing:-0.04em;}.cls-10{letter-spacing:0em;}.cls-11{letter-spacing:-0.02em;}.cls-12{letter-spacing:-0.05em;}.cls-13{letter-spacing:-0.05em;}.cls-14{letter-spacing:-0.07em;}.cls-15{letter-spacing:-0.05em;}.cls-16{letter-spacing:-0.08em;}.cls-17{letter-spacing:-0.09em;}.cls-18{letter-spacing:-0.08em;}.cls-19{font-size:58.8px;font-family:Collier-Regular, Collier;}</style></defs><path class="cls-1" d="M248.32,149.43H190.51v6.06h16.15a14.19,14.19,0,0,1,8.18,2.44A13.72,13.72,0,0,1,220.19,173l-38.76,133.8h-1.51L141.34,173.24a13.73,13.73,0,0,1,2.49-12.41l.19-.23a13.71,13.71,0,0,1,10.68-5.11h16.14v-6.06H78.52v6.06h6A21.21,21.21,0,0,1,98,160.37l.35.29a18.85,18.85,0,0,1,6,9l58.88,191.64h9.08l55.22-188a26.49,26.49,0,0,1,8.55-12.95l.72-.6a18.48,18.48,0,0,1,11.76-4.22h8.7A10.69,10.69,0,0,1,268,166.18V344.56a10.69,10.69,0,0,1-10.7,10.69h-9v6.06h69.62v-6.06h-9a10.68,10.68,0,0,1-10.7-10.69V166.18A10.68,10.68,0,0,1,309,155.49h9v-6.06H248.32Z"/><path class="cls-1" d="M354.56,197.86c-11.81-14.22-15.14-22.7-15.14-30.27,0-9.68,7.27-15.13,16.65-15.13,16.95,0,33.3,17.25,46.91,60.53l6.06-1.51-13.62-71.13h-6.05l-2.11,6.32a5.83,5.83,0,0,1-3.69,3.68,5.71,5.71,0,0,1-3.47.07c-7.32-2.19-16.45-4-24-4-23.91,0-37.83,14.22-37.83,36.32,0,12.41,4.54,26.33,16.64,40.86l31.78,37.83C383,281.1,398.45,300.77,398.45,328c0,17.56-5.45,30.27-24.22,30.27-18.46,0-32.39-13-48.43-81.72l-6.05.9,10.59,83.85h10.09a80.56,80.56,0,0,1,14.21,1.27,107.61,107.61,0,0,0,18.08,1.75c32.69,0,43.89-22.4,43.89-56,0-28.76-8.18-46.31-30.27-72.64Z"/><path class="cls-1" d="M676,355.24A12.65,12.65,0,0,1,664,346.5L599.26,149.43H567.48l7.43,23,3.41,10.58,2.47,7.66-2.28,7.72-3.83,13v0L536.83,339.57a20.47,20.47,0,0,1-8,11l-1.57,1.08a20.35,20.35,0,0,1-11.57,3.6h-5.29a10.35,10.35,0,0,1-5.59-1.63l-.24-.15a10.36,10.36,0,0,1-4.77-8.73V164.25a8.69,8.69,0,0,1,8.64-8.71h.39c23.3,1.12,22.57,15.6,18.21,28.69l-1.51,4.54,6,1.51,31.79-53-6-3-4.24,4.84c-6.05,6.66-12.11,10.3-26,10.3h-78a7,7,0,0,1-7-7,7.16,7.16,0,0,1,.54-2.71l1.17-2.73-6.07-2.73-27.23,50,4.53,3,3-3c17.24-17.24,26.05-27.08,40-28.57A10.39,10.39,0,0,1,469.57,166V344.73a10.39,10.39,0,0,1-4.77,8.73l-.25.15a10.3,10.3,0,0,1-5.58,1.63h-9.08v6.06h131.2v-6.06H559.2a14,14,0,0,1-9.33-3.55l-.57-.51a14,14,0,0,1-4.1-14.45l16.5-55.55a8.6,8.6,0,0,1,8.24-6.14h31.63a8.53,8.53,0,0,1,8.1,5.9l20.15,62.59a8.28,8.28,0,0,1-3,9.2l-1.21.9a8.24,8.24,0,0,1-4.93,1.61H602.29v6.06H684v-6.06Zm-72.48-87.8a4.2,4.2,0,0,1-3.27,1.54H569.05a2.82,2.82,0,0,1-2.4-1.33,2.88,2.88,0,0,1-.44-1.52,3,3,0,0,1,.11-.79l17.8-59.92h1.22l18.95,58A4.2,4.2,0,0,1,603.55,267.44Z"/><path class="cls-1" d="M553.5,495c16.34,19.67,31.78,39.35,31.78,66.59,0,17.55-5.45,30.27-24.22,30.27-18.46,0-32.38-13-48.42-81.73l-6.06.91,10.6,83.84h10.09a80.54,80.54,0,0,1,14.2,1.27,106.56,106.56,0,0,0,18.08,1.76c32.69,0,43.89-22.4,43.89-56,0-28.76-8.17-46.31-30.27-72.65l-31.78-37.83c-11.8-14.23-15.13-22.7-15.13-30.27,0-9.68,7.26-15.13,16.64-15.13,17,0,33.3,17.25,46.92,60.53l6-1.51-13.62-71.13h-6l-2.11,6.32a5.81,5.81,0,0,1-3.68,3.68h0a5.71,5.71,0,0,1-3.47.07c-7.32-2.2-16.46-4-24-4-23.91,0-37.83,14.23-37.83,36.33,0,12.4,4.54,26.33,16.65,40.86Z"/><path class="cls-1" d="M220.86,578.14V399.77a10.7,10.7,0,0,1,4.93-9h0a10.7,10.7,0,0,1,5.76-1.69h9V383H170.92v6.05h9a10.71,10.71,0,0,1,5.77,1.69h0a10.7,10.7,0,0,1,4.93,9V466.7a2.59,2.59,0,0,1-.76,1.83h0a2.58,2.58,0,0,1-1.82.75H131.13a2.59,2.59,0,0,1-1.83-.75h0a2.59,2.59,0,0,1-.76-1.83V399.77a10.7,10.7,0,0,1,4.93-9h0a10.73,10.73,0,0,1,5.77-1.69h9V383H78.6v6.05h9a10.7,10.7,0,0,1,5.76,1.69h0a10.68,10.68,0,0,1,4.93,9V578.14a10.67,10.67,0,0,1-4.93,9h0a10.61,10.61,0,0,1-5.76,1.69h-9v6h69.62v-6h-9a10.65,10.65,0,0,1-5.77-1.69h0a10.69,10.69,0,0,1-4.93-9V477.92a2.59,2.59,0,0,1,.76-1.83h0a2.59,2.59,0,0,1,1.83-.75H188a2.58,2.58,0,0,1,1.82.75h0a2.59,2.59,0,0,1,.76,1.83V578.14a10.69,10.69,0,0,1-4.93,9h0a10.62,10.62,0,0,1-5.77,1.69h-9v6h69.61v-6h-9a10.7,10.7,0,0,1-5.76-1.69h0A10.69,10.69,0,0,1,220.86,578.14Z"/><path class="cls-1" d="M301.67,380c-33.9,0-65.07,28.75-65.07,109s31.17,109,65.07,109,65.08-28.75,65.08-109S335.57,380,301.67,380Zm31.79,166.46c0,30.27-9.7,43.89-31.79,43.89s-31.77-13.62-31.77-43.89v-115c0-30.27,9.68-43.89,31.77-43.89s31.79,13.62,31.79,43.89Z"/><path class="cls-1" d="M506,383H459.06v6.05h9a10.73,10.73,0,0,1,5.77,1.69h0a10.7,10.7,0,0,1,4.93,9V522.25c0,40.26-3.33,66.59-31.78,66.59s-31.78-26.33-31.78-66.59V399.77a10.68,10.68,0,0,1,4.93-9h0a10.7,10.7,0,0,1,5.76-1.69h9V383H362.21v6.05h9a10.71,10.71,0,0,1,5.77,1.69h0a10.7,10.7,0,0,1,4.93,9V531.33c0,56,31.78,66.59,57.51,66.59,40.56,0,46.91-26,46.91-71.13v-127a10.7,10.7,0,0,1,4.93-9h0a10.76,10.76,0,0,1,5.77-1.69h9Z"/><path class="cls-1" d="M718.45,526.19,706,555.85c-5.68,13.42-11.8,24.2-24.18,30.28a27.12,27.12,0,0,1-11.92,2.71h-8.59a10.71,10.71,0,0,1-5.77-1.69h0a10.69,10.69,0,0,1-4.93-9V458.25a2.56,2.56,0,0,1,.76-1.83h0a2.6,2.6,0,0,1,1.83-.76h12.55c17.85,0,26.33,6.36,39.34,27.24L712.7,495l6-3-40.86-75.66-6,3,6,10.6c3.33,6.05,4.24,19.67-12.1,19.67H653.24a2.56,2.56,0,0,1-1.83-.76h0a2.55,2.55,0,0,1-.76-1.82V399.77a10.7,10.7,0,0,1,4.93-9h0a10.71,10.71,0,0,1,5.77-1.69h6.58a36.27,36.27,0,0,1,9.45,1.24c11.81,3.22,20.45,10,32.29,30.55l6.06-3L691.51,369.4h-6L684,383H600.71v6.05h9a10.7,10.7,0,0,1,5.76,1.69h0a10.68,10.68,0,0,1,4.93,9V578.14a10.67,10.67,0,0,1-4.93,9h0a10.7,10.7,0,0,1-5.76,1.69h-9v6h90.8l4.54,9.08h6.06l22.7-75.66Z"/><text class="cls-2" transform="translate(-3.48 678)"><tspan class="cls-3">C</tspan><tspan class="cls-4" x="40.71" y="0">O</tspan><tspan class="cls-5" x="92.9" y="0">L</tspan><tspan class="cls-6" x="126.48" y="0">U</tspan><tspan class="cls-7" x="173.48" y="0">M</tspan><tspan class="cls-8" x="234.6" y="0">B</tspan><tspan class="cls-9" x="275.39" y="0">I</tspan><tspan class="cls-10" x="295.03" y="0">A </tspan><tspan class="cls-11" x="362.77" y="0">R</tspan><tspan class="cls-12" x="410.8" y="0">I</tspan><tspan class="cls-13" x="430.26" y="0">V</tspan><tspan class="cls-14" x="477.01" y="0">E</tspan><tspan x="512.96" y="0">R </tspan><tspan class="cls-15" x="579.26" y="0">G</tspan><tspan class="cls-16" x="628.56" y="0">O</tspan><tspan class="cls-17" x="680.5" y="0">R</tspan><tspan class="cls-18" x="722.06" y="0">G</tspan><tspan x="768.22" y="0">E</tspan></text><text class="cls-19" transform="translate(200.22 126.71) rotate(-63.63)">E</text><text class="cls-19" transform="matrix(0.7, -0.71, 0.71, 0.7, 212.68, 101.07)">S</text><text class="cls-19" transform="translate(228.74 83.41) rotate(-33.57)">T</text><text class="cls-19" transform="translate(250.07 68.3) rotate(-24.9)">A</text><text class="cls-19" transform="translate(282.33 53.3) rotate(-15.79)">B</text><text class="cls-19" transform="translate(312.14 44.78) rotate(-9.66)">L</text><text class="cls-19" transform="translate(339.25 40.3) rotate(-5.29)">I</text><text class="cls-19" transform="translate(353.34 38.62) rotate(-1.22)">S</text><text class="cls-19" transform="translate(380.13 37.44) rotate(5.01)">H</text><text class="cls-19" transform="translate(418.2 40.79) rotate(11.63)">E</text><text class="cls-19" transform="matrix(0.94, 0.33, -0.33, 0.94, 445.51, 45.72)">D</text><text class="cls-19" transform="matrix(0.9, 0.45, -0.45, 0.9, 483.6, 59.91)"> </text><text class="cls-19" transform="translate(493.52 64.62) rotate(31.18)">1</text><text class="cls-19" transform="translate(504.87 70.53) rotate(38.55)">9</text><text class="cls-19" transform="translate(523.87 85.52) rotate(47.41)">1</text><text class="cls-19" transform="matrix(0.5, 0.86, -0.86, 0.5, 534.28, 95.09)">8</text></svg>