<svg id="Layer_1" data-name="Layer 1" xmlns="http://www.w3.org/2000/svg" viewBox="0 0 1297.1 236.09"><defs><style>.cls-1{fill:#008d65;}</style></defs><path class="cls-1" d="M169.8,15.14H112v6.05h16.15a14.27,14.27,0,0,1,8.18,2.44,13.72,13.72,0,0,1,5.35,15.09L102.91,172.53H101.4L62.82,38.94a13.73,13.73,0,0,1,2.49-12.41l.19-.23a13.71,13.71,0,0,1,10.68-5.11H92.32V15.14H0v6.05H6a21.25,21.25,0,0,1,13.56,4.89l.34.28a18.9,18.9,0,0,1,6,9L84.75,227h9.08L149.05,39A26.42,26.42,0,0,1,157.6,26l.72-.6a18.44,18.44,0,0,1,11.76-4.23h8.7a10.72,10.72,0,0,1,10.7,10.7V210.26a10.72,10.72,0,0,1-10.7,10.7h-9v6h69.62v-6h-9a10.7,10.7,0,0,1-10.7-10.7V31.89a10.7,10.7,0,0,1,10.7-10.7h9V15.14H169.8Z"/><path class="cls-1" d="M276,63.57C264.23,49.34,260.9,40.87,260.9,33.3c0-9.69,7.27-15.14,16.65-15.14,16.95,0,33.3,17.26,46.92,60.54l6-1.51L316.9,6.06h-6l-2.11,6.31a5.84,5.84,0,0,1-3.69,3.69,5.76,5.76,0,0,1-3.46.07c-7.33-2.2-16.46-4-24-4-23.91,0-37.83,14.23-37.83,36.32,0,12.41,4.54,26.34,16.64,40.86l31.78,37.84c16.35,19.67,31.79,39.35,31.79,66.59,0,17.55-5.45,30.26-24.22,30.26-18.46,0-32.38-13-48.43-81.72l-6.05.91L251.82,227h10.09a80.56,80.56,0,0,1,14.21,1.27A106.56,106.56,0,0,0,294.2,230c32.69,0,43.89-22.4,43.89-56,0-28.75-8.18-46.31-30.27-72.64Z"/><path class="cls-1" d="M597.51,221a12.65,12.65,0,0,1-12.06-8.74L520.74,15.14H489l7.43,23,3.41,10.58,2.47,7.66L500,64.15l-3.83,13v0L458.31,205.28a20.47,20.47,0,0,1-8,11l-1.57,1.08a20.35,20.35,0,0,1-11.57,3.6h-5.29a10.35,10.35,0,0,1-5.59-1.63l-.24-.15a10.36,10.36,0,0,1-4.77-8.73V30A8.69,8.69,0,0,1,430,21.25h.39c23.3,1.12,22.57,15.6,18.21,28.69l-1.51,4.54,6,1.51L484.88,3l-6.05-3-4.24,4.84c-6,6.66-12.11,10.3-26,10.3h-78a7,7,0,0,1-7-7,7.16,7.16,0,0,1,.54-2.71l1.17-2.73L359.26,0,332,50l4.53,3,3-3c17.24-17.24,26-27.08,40-28.57a10.39,10.39,0,0,1,11.41,10.33V210.44a10.39,10.39,0,0,1-4.77,8.73l-.25.15a10.3,10.3,0,0,1-5.58,1.63h-9.08V227h131.2V221H480.68a14,14,0,0,1-9.33-3.55l-.57-.51a14,14,0,0,1-4.1-14.45l16.5-55.55a8.6,8.6,0,0,1,8.24-6.14h31.63a8.53,8.53,0,0,1,8.1,5.9l20.15,62.59a8.28,8.28,0,0,1-2.95,9.2l-1.21.9a8.24,8.24,0,0,1-4.93,1.61H523.77V227h81.72V221ZM525,133.15a4.2,4.2,0,0,1-3.27,1.54H490.53a2.82,2.82,0,0,1-2.4-1.33,2.88,2.88,0,0,1-.44-1.52,3,3,0,0,1,.11-.79l17.8-59.92h1.22l18.95,58A4.2,4.2,0,0,1,525,133.15Z"/><path class="cls-1" d="M1125.79,127.13c16.34,19.67,31.78,39.34,31.78,66.59,0,17.55-5.45,30.26-24.21,30.26-18.47,0-32.39-13-48.43-81.72l-6.06.91,10.6,83.84h10.09a80.73,80.73,0,0,1,14.21,1.27,106.34,106.34,0,0,0,18.07,1.76c32.69,0,43.89-22.4,43.89-56,0-28.75-8.17-46.31-30.27-72.64l-31.78-37.84c-11.8-14.22-15.13-22.7-15.13-30.26,0-9.69,7.26-15.14,16.65-15.14,17,0,33.29,17.26,46.91,60.54l6.05-1.51L1154.54,6.06h-6l-2.11,6.31a5.83,5.83,0,0,1-3.68,3.69h0a5.79,5.79,0,0,1-3.47.07c-7.32-2.2-16.46-4-24-4-23.92,0-37.84,14.23-37.84,36.32,0,12.41,4.54,26.33,16.65,40.86Z"/><path class="cls-1" d="M793.15,210.26V31.89a10.69,10.69,0,0,1,4.93-9h0a10.71,10.71,0,0,1,5.77-1.69h9V15.14H743.21v6.05h9A10.7,10.7,0,0,1,758,22.88h0a10.69,10.69,0,0,1,4.93,9V98.82a2.58,2.58,0,0,1-.75,1.82h0a2.59,2.59,0,0,1-1.83.76H703.42a2.57,2.57,0,0,1-1.83-.76h0a2.59,2.59,0,0,1-.76-1.82V31.89a10.69,10.69,0,0,1,4.93-9h0a10.7,10.7,0,0,1,5.76-1.69h9V15.14H650.89v6.05h9a10.76,10.76,0,0,1,5.77,1.69h0a10.69,10.69,0,0,1,4.93,9V210.26a10.7,10.7,0,0,1-4.93,9h0a10.76,10.76,0,0,1-5.77,1.69h-9v6h69.62v-6h-9a10.7,10.7,0,0,1-5.76-1.69h0a10.7,10.7,0,0,1-4.93-9V110a2.6,2.6,0,0,1,.76-1.83h0a2.61,2.61,0,0,1,1.83-.76H760.3a2.63,2.63,0,0,1,1.83.76h0a2.59,2.59,0,0,1,.75,1.83V210.26a10.7,10.7,0,0,1-4.93,9h0a10.7,10.7,0,0,1-5.76,1.69h-9v6h69.61v-6h-9a10.71,10.71,0,0,1-5.77-1.69h0A10.7,10.7,0,0,1,793.15,210.26Z"/><path class="cls-1" d="M874,12.12c-33.9,0-65.07,28.75-65.07,109S840.06,230,874,230,939,201.28,939,121.08,907.86,12.12,874,12.12Zm31.79,166.46c0,30.27-9.7,43.88-31.79,43.88s-31.77-13.61-31.77-43.88v-115c0-30.27,9.68-43.9,31.77-43.9s31.79,13.63,31.79,43.9Z"/><path class="cls-1" d="M1078.27,15.14h-46.91v6.05h9a10.71,10.71,0,0,1,5.77,1.69h0a10.69,10.69,0,0,1,4.93,9V154.37c0,40.25-3.33,66.59-31.78,66.59s-31.78-26.34-31.78-66.59V31.89a10.69,10.69,0,0,1,4.93-9h0a10.7,10.7,0,0,1,5.76-1.69h9V15.14H934.5v6.05h9a10.7,10.7,0,0,1,5.76,1.69h0a10.67,10.67,0,0,1,4.93,9V163.45c0,56,31.78,66.59,57.51,66.59,40.56,0,46.92-26,46.92-71.13v-127a10.69,10.69,0,0,1,4.93-9h0a10.7,10.7,0,0,1,5.76-1.69h9Z"/><path class="cls-1" d="M1290.74,158.3,1278.33,188c-5.68,13.43-11.79,24.21-24.17,30.28a27.07,27.07,0,0,1-11.93,2.72h-8.59a10.76,10.76,0,0,1-5.77-1.69h0a10.7,10.7,0,0,1-4.93-9V90.36a2.59,2.59,0,0,1,.76-1.82h0a2.56,2.56,0,0,1,1.83-.76h12.55c17.86,0,26.33,6.36,39.35,27.24l7.56,12.11,6.06-3-40.87-75.67-6,3,6,10.59c3.33,6,4.24,19.68-12.1,19.68h-12.55a2.6,2.6,0,0,1-1.83-.76h0a2.61,2.61,0,0,1-.76-1.83V31.89a10.69,10.69,0,0,1,4.93-9h0a10.76,10.76,0,0,1,5.77-1.69h6.59a35.9,35.9,0,0,1,9.45,1.24c11.8,3.21,20.44,10,32.29,30.54l6-3L1263.81,1.52h-6.06l-1.51,13.62H1173v6.05h9a10.76,10.76,0,0,1,5.77,1.69h0a10.69,10.69,0,0,1,4.93,9V210.26a10.7,10.7,0,0,1-4.93,9h0A10.76,10.76,0,0,1,1182,221h-9v6h90.81l4.54,9.08h6.05l22.7-75.67Z"/></svg>