<svg id="Layer_1" data-name="Layer 1" xmlns="http://www.w3.org/2000/svg" viewBox="0 0 646.29 469.68"><defs><style>.cls-1{fill:#008d65;}</style></defs><path class="cls-1" d="M169.8,15.14H112v6.05h16.15a14.27,14.27,0,0,1,8.18,2.44,13.72,13.72,0,0,1,5.35,15.09L102.91,172.53H101.4L62.82,38.94a13.73,13.73,0,0,1,2.49-12.41l.19-.23a13.71,13.71,0,0,1,10.68-5.11H92.32V15.14H0v6.05H6a21.25,21.25,0,0,1,13.56,4.89l.34.28a18.9,18.9,0,0,1,6,9L84.75,227h9.08L149.05,39A26.42,26.42,0,0,1,157.6,26l.72-.6a18.44,18.44,0,0,1,11.76-4.23h8.7a10.72,10.72,0,0,1,10.7,10.7V210.26a10.72,10.72,0,0,1-10.7,10.7h-9v6h69.62v-6h-9a10.7,10.7,0,0,1-10.7-10.7V31.89a10.7,10.7,0,0,1,10.7-10.7h9V15.14H169.8Z"/><path class="cls-1" d="M276,63.57C264.23,49.34,260.9,40.87,260.9,33.3c0-9.69,7.27-15.14,16.65-15.14,16.95,0,33.3,17.26,46.92,60.54l6-1.51L316.9,6.06h-6l-2.11,6.31a5.84,5.84,0,0,1-3.69,3.69,5.76,5.76,0,0,1-3.46.07c-7.33-2.2-16.46-4-24-4-23.91,0-37.83,14.23-37.83,36.32,0,12.41,4.54,26.34,16.64,40.86l31.78,37.84c16.35,19.67,31.79,39.35,31.79,66.59,0,17.55-5.45,30.26-24.22,30.26-18.46,0-32.38-13-48.43-81.72l-6.05.91L251.82,227h10.09a80.56,80.56,0,0,1,14.21,1.27A106.56,106.56,0,0,0,294.2,230c32.69,0,43.89-22.4,43.89-56,0-28.75-8.18-46.31-30.27-72.64Z"/><path class="cls-1" d="M597.51,221a12.65,12.65,0,0,1-12.06-8.74L520.74,15.14H489l7.43,23,3.41,10.58,2.47,7.66L500,64.15l-3.83,13v0L458.31,205.28a20.47,20.47,0,0,1-8,11l-1.57,1.08a20.35,20.35,0,0,1-11.57,3.6h-5.29a10.35,10.35,0,0,1-5.59-1.63l-.24-.15a10.36,10.36,0,0,1-4.77-8.73V30A8.69,8.69,0,0,1,430,21.25h.39c23.3,1.12,22.57,15.6,18.21,28.69l-1.51,4.54,6,1.51L484.88,3l-6.05-3-4.24,4.84c-6,6.66-12.11,10.3-26,10.3h-78a7,7,0,0,1-7-7,7.16,7.16,0,0,1,.54-2.71l1.17-2.73L359.26,0,332,50l4.53,3,3-3c17.24-17.24,26-27.08,40-28.57a10.39,10.39,0,0,1,11.41,10.33V210.44a10.39,10.39,0,0,1-4.77,8.73l-.25.15a10.3,10.3,0,0,1-5.58,1.63h-9.08V227h131.2V221H480.68a14,14,0,0,1-9.33-3.55l-.57-.51a14,14,0,0,1-4.1-14.45l16.5-55.55a8.6,8.6,0,0,1,8.24-6.14h31.63a8.53,8.53,0,0,1,8.1,5.9l20.15,62.59a8.28,8.28,0,0,1-2.95,9.2l-1.21.9a8.24,8.24,0,0,1-4.93,1.61H523.77V227h81.72V221ZM525,133.15a4.2,4.2,0,0,1-3.27,1.54H490.53a2.82,2.82,0,0,1-2.4-1.33,2.88,2.88,0,0,1-.44-1.52,3,3,0,0,1,.11-.79l17.8-59.92h1.22l18.95,58A4.2,4.2,0,0,1,525,133.15Z"/><path class="cls-1" d="M475,360.72c16.34,19.67,31.78,39.34,31.78,66.58,0,17.56-5.45,30.27-24.22,30.27-18.46,0-32.38-13-48.42-81.72l-6.06.91,10.6,83.84h10.09a80.54,80.54,0,0,1,14.2,1.27A106.56,106.56,0,0,0,481,463.63c32.69,0,43.89-22.4,43.89-56,0-28.75-8.17-46.31-30.27-72.64l-31.78-37.84c-11.8-14.22-15.13-22.7-15.13-30.26,0-9.69,7.26-15.14,16.64-15.14,16.95,0,33.3,17.25,46.92,60.54l6.05-1.52-13.62-71.12h-6.05L495.57,246a5.83,5.83,0,0,1-3.68,3.69h0a5.87,5.87,0,0,1-3.47.07c-7.32-2.2-16.46-4-24-4-23.91,0-37.83,14.23-37.83,36.32,0,12.41,4.54,26.33,16.65,40.86Z"/><path class="cls-1" d="M142.34,443.85V265.48a10.69,10.69,0,0,1,4.93-9h0a10.62,10.62,0,0,1,5.77-1.69h9v-6.05H92.4v6.05h9a10.62,10.62,0,0,1,5.77,1.69h0a10.69,10.69,0,0,1,4.93,9V332.4a2.56,2.56,0,0,1-.76,1.83h0a2.55,2.55,0,0,1-1.82.76H52.61a2.56,2.56,0,0,1-1.83-.76h0A2.6,2.6,0,0,1,50,332.4V265.48a10.69,10.69,0,0,1,4.93-9h0a10.67,10.67,0,0,1,5.77-1.69h9v-6.05H.08v6.05h9a10.61,10.61,0,0,1,5.76,1.69h0a10.68,10.68,0,0,1,4.94,9V443.85a10.69,10.69,0,0,1-4.94,9h0a10.7,10.7,0,0,1-5.76,1.69h-9v6.05H69.7v-6.05h-9A10.76,10.76,0,0,1,55,452.86h0a10.7,10.7,0,0,1-4.93-9V343.63a2.6,2.6,0,0,1,.76-1.83h0a2.56,2.56,0,0,1,1.83-.76h56.88a2.55,2.55,0,0,1,1.82.76h0a2.56,2.56,0,0,1,.76,1.83V443.85a10.7,10.7,0,0,1-4.93,9h0a10.71,10.71,0,0,1-5.77,1.69h-9v6.05H162v-6.05h-9a10.71,10.71,0,0,1-5.77-1.69h0A10.7,10.7,0,0,1,142.34,443.85Z"/><path class="cls-1" d="M223.15,245.7c-33.9,0-65.07,28.75-65.07,109s31.17,109,65.07,109,65.08-28.75,65.08-108.95S257.05,245.7,223.15,245.7Zm31.79,166.47c0,30.27-9.7,43.88-31.79,43.88s-31.77-13.61-31.77-43.88v-115c0-30.27,9.68-43.9,31.77-43.9s31.79,13.63,31.79,43.9Z"/><path class="cls-1" d="M427.46,248.73H380.54v6.05h9a10.62,10.62,0,0,1,5.77,1.69h0a10.69,10.69,0,0,1,4.93,9V388c0,40.25-3.33,66.59-31.78,66.59S336.66,428.21,336.66,388V265.48a10.69,10.69,0,0,1,4.93-9h0a10.61,10.61,0,0,1,5.76-1.69h9v-6.05H283.69v6.05h9a10.61,10.61,0,0,1,5.76,1.69h0a10.69,10.69,0,0,1,4.93,9V397c0,56,31.78,66.59,57.51,66.59,40.56,0,46.92-26,46.92-71.13v-127a10.67,10.67,0,0,1,4.93-9h0a10.61,10.61,0,0,1,5.76-1.69h9Z"/><path class="cls-1" d="M639.93,391.89l-12.41,29.66c-5.68,13.43-11.8,24.21-24.18,30.28a27,27,0,0,1-11.92,2.72h-8.59a10.73,10.73,0,0,1-5.77-1.69h0a10.7,10.7,0,0,1-4.93-9V324a2.59,2.59,0,0,1,.76-1.83h0a2.59,2.59,0,0,1,1.83-.75h12.55c17.85,0,26.33,6.35,39.34,27.24l7.57,12.11,6.05-3L599.37,282l-6,3,6,10.59c3.33,6.05,4.24,19.67-12.1,19.67H574.72a2.59,2.59,0,0,1-1.83-.75h0a2.57,2.57,0,0,1-.76-1.83V265.48a10.69,10.69,0,0,1,4.93-9h0a10.65,10.65,0,0,1,5.77-1.69h6.59a36,36,0,0,1,9.45,1.24c11.8,3.21,20.44,10,32.28,30.54l6.06-3L613,235.11h-6l-1.51,13.62H522.19v6.05h9a10.61,10.61,0,0,1,5.76,1.69h0a10.67,10.67,0,0,1,4.93,9V443.85a10.68,10.68,0,0,1-4.93,9h0a10.7,10.7,0,0,1-5.76,1.69h-9v6.05H613l4.54,9.08h6.06L646.29,394Z"/></svg>