<?xml version="1.0" standalone="no"?>
<!DOCTYPE svg PUBLIC "-//W3C//DTD SVG 20010904//EN"
 "http://www.w3.org/TR/2001/REC-SVG-20010904/DTD/svg10.dtd">
<svg version="1.0" xmlns="http://www.w3.org/2000/svg"
 width="700.000000pt" height="700.000000pt" viewBox="0 0 700.000000 700.000000"
 preserveAspectRatio="xMidYMid meet">
<metadata>
Created by potrace 1.11, written by Peter Selinger 2001-2013
</metadata>
<g transform="translate(0.000000,700.000000) scale(0.100000,-0.100000)"
fill="#000000" stroke="none">
<path d="M3040 6198 c-64 -11 -204 -65 -320 -122 -430 -215 -762 -578 -982
-1076 -62 -139 -147 -388 -174 -511 -11 -49 -15 -71 -33 -164 -11 -55 -22
-116 -25 -135 -19 -121 -23 -150 -32 -262 l-6 -78 39 -1 c69 -1 205 -17 256
-28 20 -5 37 -8 38 -7 0 0 2 30 4 66 4 82 14 197 19 230 3 14 9 57 15 95 6 39
13 84 16 100 12 63 77 292 94 330 4 11 19 47 31 80 61 159 188 392 277 505
229 293 461 493 771 663 56 32 104 57 106 57 2 0 42 17 88 39 148 69 477 181
531 181 26 0 17 10 -14 15 -38 6 -192 14 -365 21 -256 9 -290 9 -334 2z"/>
<path d="M2408 6175 c-2 -2 -40 -6 -86 -9 -46 -4 -89 -9 -95 -11 -7 -2 -39 -6
-72 -9 -33 -4 -70 -8 -82 -10 -11 -3 -43 -8 -70 -12 -26 -3 -57 -8 -68 -10
-10 -2 -36 -6 -56 -9 -35 -5 -356 -71 -391 -80 -10 -3 -27 -7 -38 -9 -27 -6
-116 -29 -215 -56 -158 -42 -527 -170 -650 -225 -16 -7 -64 -28 -105 -45 -149
-64 -306 -143 -346 -176 -89 -71 -136 -181 -129 -294 10 -159 195 -594 418
-982 213 -371 540 -831 812 -1143 15 -16 50 -57 78 -90 145 -166 487 -515 505
-515 6 0 10 8 10 18 -1 9 2 49 6 87 l7 70 -37 25 c-197 132 -365 324 -492 562
-90 170 -183 453 -168 514 9 34 53 74 82 74 28 0 37 13 40 59 4 60 14 174 19
206 20 141 51 307 72 390 14 55 26 108 28 117 10 49 83 268 125 373 192 487
490 872 876 1135 77 53 83 59 55 58 -17 -1 -32 -2 -33 -3z"/>
<path d="M4538 6085 c-2 -2 -39 -6 -82 -9 -79 -7 -122 -12 -326 -41 -182 -26
-476 -105 -673 -179 -469 -178 -846 -468 -1082 -831 -81 -125 -87 -134 -133
-230 -100 -205 -174 -443 -202 -646 -6 -43 -13 -93 -15 -111 -3 -18 -8 -88
-11 -154 l-7 -122 24 -7 c45 -13 184 -67 221 -86 48 -25 88 -30 212 -31 212
-2 330 35 444 137 159 143 243 354 244 610 1 178 -5 209 -61 289 -71 104 -123
203 -126 239 -5 60 35 107 93 109 30 1 92 -27 92 -41 0 -16 82 -153 138 -231
187 -262 437 -472 732 -612 165 -79 399 -153 544 -172 27 -4 52 -9 56 -11 3
-2 46 -6 95 -10 50 -4 94 -9 99 -12 4 -3 -52 55 -126 128 -158 157 -243 275
-234 323 9 46 32 73 70 86 52 17 95 -6 139 -71 20 -30 51 -70 69 -90 18 -20
49 -55 69 -77 177 -194 472 -355 766 -416 124 -26 160 -32 279 -41 l71 -5 -12
77 c-16 99 -52 238 -71 274 -39 76 5 159 84 159 72 0 109 -58 156 -245 36
-145 93 -547 88 -627 -1 -26 3 -23 36 30 99 157 183 379 207 547 4 22 9 51 12
65 3 14 6 95 8 180 5 272 -45 501 -165 757 -261 556 -720 905 -1385 1054 -49
11 -106 22 -125 25 -19 2 -48 7 -64 10 -31 7 -143 13 -148 9z"/>
<path d="M3353 4297 c-12 -298 -170 -590 -401 -740 -70 -45 -66 -30 -41 -142
5 -22 12 -51 15 -65 3 -14 9 -43 14 -65 5 -22 12 -63 15 -91 3 -28 8 -61 10
-74 24 -124 24 -548 1 -690 -3 -14 -7 -45 -11 -70 -35 -239 -120 -474 -221
-611 l-36 -49 57 -70 c148 -181 370 -371 592 -507 57 -35 106 -63 109 -63 3 0
18 -8 32 -18 15 -10 65 -35 112 -56 279 -126 553 -188 825 -189 86 0 244 11
255 18 3 2 23 6 45 9 113 18 294 81 400 141 238 133 402 297 562 560 70 115
153 329 179 457 19 101 36 189 40 218 3 19 9 58 14 85 5 28 12 77 16 110 3 33
7 74 9 90 2 17 6 68 10 115 4 47 9 101 11 120 4 44 4 542 0 590 -2 19 -7 78
-10 130 -9 127 -8 126 -59 126 -52 1 -172 12 -212 19 -16 2 -43 7 -60 9 -108
17 -206 43 -325 87 l-115 43 -155 1 c-331 4 -535 31 -770 101 -315 94 -614
261 -835 467 -33 31 -62 56 -65 57 -3 0 -6 -24 -7 -53z m508 -916 c9 0 31 -16
49 -33 105 -107 127 -323 48 -471 -35 -64 -71 -95 -121 -104 -64 -10 -119 35
-163 132 -24 53 -27 73 -28 165 0 120 11 168 57 237 34 51 81 82 119 78 13 -1
30 -3 39 -4z m1536 -81 c151 -92 151 -478 0 -570 -127 -78 -258 86 -244 304 6
95 9 111 35 168 47 106 131 146 209 98z m-557 -346 c161 -64 242 -182 236
-343 -7 -187 -166 -314 -401 -320 -126 -3 -253 44 -343 127 -45 42 -52 53 -52
86 0 47 13 72 51 95 39 24 86 14 134 -28 47 -41 81 -58 142 -69 97 -17 209 10
246 61 26 34 26 94 1 136 -44 74 -186 99 -311 55 -99 -35 -150 -20 -173 51
-35 105 105 179 320 171 69 -3 121 -11 150 -22z m-935 -819 c39 -3 95 -7 125
-10 173 -14 324 -20 560 -20 286 0 392 7 545 34 71 13 107 5 139 -30 26 -30
28 -36 22 -87 -13 -107 -104 -286 -198 -388 -236 -256 -654 -296 -1003 -95
-144 82 -314 255 -413 419 -69 113 -21 199 103 187 28 -3 82 -7 120 -10z"/>
<path d="M4279 1920 c-69 -21 -125 -51 -167 -89 l-33 -30 53 -40 c120 -90 277
-143 428 -143 83 0 165 13 200 32 21 11 16 49 -14 112 -67 141 -285 215 -467
158z"/>
<path d="M1370 3647 c0 -1 13 -39 30 -84 74 -209 201 -416 335 -548 59 -59
137 -125 146 -125 5 0 13 19 20 43 38 146 142 410 205 523 l25 44 -46 20
c-108 46 -306 97 -450 115 -50 7 -265 16 -265 12z"/>
<path d="M6660 3588 c-41 -4 -96 -12 -121 -18 -44 -11 -48 -15 -80 -78 -18
-37 -45 -87 -59 -112 -29 -49 -29 -44 12 -135 31 -69 107 -311 128 -407 31
-142 27 -135 66 -91 129 144 255 342 320 501 57 141 77 221 66 264 -10 40 -61
78 -108 79 -124 4 -157 3 -224 -3z"/>
<path d="M2647 3443 c-4 -4 -78 -7 -164 -8 l-156 -2 -43 -82 c-89 -167 -197
-478 -229 -656 -20 -115 -28 -383 -13 -465 29 -161 102 -353 165 -436 54 -72
143 -80 237 -24 68 42 129 100 161 155 62 105 132 323 150 465 4 30 8 57 10
60 8 12 19 204 19 320 0 124 -9 287 -19 345 -3 17 -10 55 -15 85 -16 94 -18
103 -35 178 -15 63 -19 72 -39 72 -13 0 -26 -3 -29 -7z"/>
<path d="M6202 3103 c-12 -15 -22 -36 -22 -48 -3 -245 -18 -523 -35 -645 -2
-14 -7 -50 -10 -80 -7 -60 -11 -88 -25 -170 -5 -30 -12 -71 -15 -90 -10 -63
-46 -223 -67 -295 l-20 -70 62 -57 c49 -45 71 -58 106 -64 113 -17 166 58 203
286 31 193 31 547 1 730 -5 30 -12 69 -15 86 -19 117 -118 444 -134 444 -4 0
-17 -12 -29 -27z"/>
</g>
</svg>
