<?xml version="1.0" encoding="utf-8"?>
<!-- Generator: Adobe Illustrator 24.3.0, SVG Export Plug-In . SVG Version: 6.00 Build 0)  -->
<svg version="1.1" id="ride-bike" xmlns="http://www.w3.org/2000/svg" xmlns:xlink="http://www.w3.org/1999/xlink" x="0px" y="0px"
	 viewBox="0 0 1022.8 785" style="enable-background:new 0 0 1022.8 785;" xml:space="preserve">
<style type="text/css">
	.st0{fill:url(#bkg_1_);}
	.st1{fill:#535461;}
	.st2{opacity:0.1;enable-background:new    ;}
	.st3{fill:#ABB1D1;}
	.st4{fill:#4BDE46;}
	.st5{opacity:5.000000e-02;enable-background:new    ;}
	.st6{fill:#FF4AAE;}
	.st7{fill:#6C63FF;}
	.st8{fill:none;stroke:#C1272D;stroke-miterlimit:10;}
	.st9{fill:#FFFFFF;}
</style>
<linearGradient id="bkg_1_" gradientUnits="userSpaceOnUse" x1="205.8782" y1="291.6651" x2="908.9871" y2="555.2777" gradientTransform="matrix(1 0 0 -1 -34.93 786)">
	<stop  offset="0" style="stop-color:#FF4AAE"/>
	<stop  offset="9.000000e-02" style="stop-color:#F34CB5"/>
	<stop  offset="0.25" style="stop-color:#D451C6"/>
	<stop  offset="0.47" style="stop-color:#A15AE2"/>
	<stop  offset="0.67" style="stop-color:#6C63FF"/>
	<stop  offset="0.71" style="stop-color:#696FED"/>
	<stop  offset="0.78" style="stop-color:#618DC0"/>
	<stop  offset="0.89" style="stop-color:#54BE76"/>
	<stop  offset="0.96" style="stop-color:#4BDE46"/>
</linearGradient>
<path id="bkg" class="st0" d="M375.7,186.5c39.6-3.2,75.7-45.2,111.2-63.1c52.4-26.5,114-27.9,167.6-3.7c32.7,14.8,62,38.4,95,52.2
	c32,13.3,67.4,17.5,95.5,39.7c26.2,20.7,42.9,56.2,45.9,92.9c3,36.8-7.3,74.3-26.4,103.7c-9.7,15-21.9,28.3-36.1,39.1
	c-25.2,19-54.9,28.2-82.2,42.9c-63.4,34.4-112.8,98.3-177.7,128.8c-42.3,19.8-89.8,24.2-134.2,12.3c-18.8-5.1-39.9-12.6-56.3-0.7
	c-7,5.1-12,13-18.3,19.2c-9.6,9.5-21.9,14.4-33.8,19.1c-13.7,5.4-27.8,10.9-42.2,9.8c-16.3-1.2-31.3-10.8-45.3-20.7
	c-20.9-14.7-41.2-30.4-60.9-47.2C165,600,151.9,587.5,148,569.8c-6.3-28.6,13.9-55.1,21.2-83.4c6.4-24.9,2-53.1-11.3-73.9
	c-6.4-9.9-14.9-18.9-16.9-31.1c-3.6-22.7,16.6-39.6,33.1-52.3c39.2-29.9,73.5-71.7,87.5-123.7c1.7-6.5,3.3-13.3,7.3-18.2
	C291,160.5,347.5,188.7,375.7,186.5z"/>
<g id="left-wheel">
	<path class="st1" d="M302.3,628.9l-4.6-71.9l-0.1-0.2l-4.6,1.6l-21.4,62.3l-34-24.1l54.1-39.2l0.1-0.2l0.3-0.1l3.5-2.5l-56.7-31.8
		L225,538.1l2.2,14.3l65.2,1.2v1.5l-66.4-1.2l-2.5-16.3l19-20.9l28.5-33.2l0.5,1.4l6-6.6l22.4,4v-0.9l1.5,0v1.1l33.3,6l-31,62.1
		L299,554v0.7l71.8-25l-8.5,67l-60.9-38.8l-2.2-1.2l36,57.9L302.3,628.9z M299.4,559.6l4.3,67.1l29.4-12.8L299.4,559.6z
		 M240.2,596.7l30.7,21.8l20.1-58.5L240.2,596.7z M300.7,555.8l1.5,0.9l59,37.6l7.9-62.3L300.7,555.8z M295.5,550.5l1.8,2.9l0.3-0.2
		l2.2-69.4l-21.8-3.9l-6,6.6L295.5,550.5z M240.1,521.8l54.9,30.8l-1-1.6l-23.2-63.3l-27.3,30L240.1,521.8z M301.3,484.1l-2.2,68.1
		l3.3-2.4l30-60.1L301.3,484.1z"/>
	<path class="st1" d="M382.9,535.7c-2.9-13.1-8.9-25.3-17.4-35.7c-3.2-3.9-6.7-7.5-10.4-10.7c-36.1-31.2-90.7-27.2-121.8,8.9
		S206,588.8,242.1,620s90.7,27.2,121.8-8.9c10.5-12.2,17.4-27.1,19.9-43c0.7-4.5,1-8.9,1-13.5C384.9,548.3,384.2,541.9,382.9,535.7z
		 M298.3,619.6c-36,0-65.1-29.2-65.1-65.2c0-36,29.2-65.1,65.2-65.1c36,0,65.1,29.2,65.1,65.2c0,3.9-0.4,7.8-1.1,11.6
		C356.8,597.1,329.8,619.6,298.3,619.6z"/>
	<circle class="st2" cx="299.5" cy="554.3" r="9.4"/>
	
		<ellipse transform="matrix(0.3163 -0.9487 0.9487 0.3163 -321.9612 662.0166)" class="st1" cx="298.3" cy="554.4" rx="9.4" ry="9.4"/>
</g>
<g id="right-wheel">
	<path class="st1" d="M675.2,597l8.5-67l-71.8,25v-0.8l4.5-3.3l31.1-62.1l-33.3-6v-1.1l-1.5,0v0.9l-22.4-4l-6,6.6l-0.5-1.4
		L555.4,517l-19,20.9l2.5,16.2l66.4,1.2v-1.5l-65.2-1.2l-2.2-14.3l13.9-15.2l56.7,31.8l-3.5,2.5l-0.3,0.1l-0.1,0.2L550.6,597
		l34,24.1l21.4-62.3l4.6-1.6l0.1,0.2l4.6,71.9l32.9-14.3L612.1,557l2.1,1.2L675.2,597z M583.8,618.7L553.1,597l50.8-36.8
		L583.8,618.7z M614.2,484.4l31.2,5.6l-30,60.1l-3.3,2.4L614.2,484.4z M553,522.1l3.5-4.1l27.3-30l23.2,63.3l1,1.6L553,522.1z
		 M610.5,553.5l-0.3,0.2l-1.8-2.9l-23.5-64l6-6.6l21.9,3.9L610.5,553.5z M646,614.2L616.6,627l-4.3-67.1L646,614.2z M682,532.2
		l-7.9,62.3l-59-37.6l-1.5-0.9L682,532.2z"/>
	<path class="st1" d="M611.5,468.6c-7.8,0-15.6,1-23.1,3.1c-3.9,1.1-7.7,2.4-11.4,4c-43.8,19-63.9,69.9-44.9,113.7
		c19,43.8,69.9,63.9,113.7,44.9s63.9-69.9,44.9-113.7C677,489,645.9,468.6,611.5,468.6L611.5,468.6z M611.2,619.9
		c-36,0-65.3-29.2-65.3-65.2c0-25.6,14.9-48.8,38.2-59.4c3.4-1.6,7-2.8,10.7-3.8c34.9-9,70.5,11.9,79.5,46.8
		c9,34.9-11.9,70.5-46.8,79.5C622.1,619.2,616.7,619.9,611.2,619.9L611.2,619.9z"/>
	<circle class="st1" cx="611.2" cy="554.6" r="9.4"/>
</g>
<g id="man">
	<path class="st2" d="M365.4,499.9l-15.7,14.4c-2.8-3.6-5.9-6.8-9.4-9.8l14.6-15.3C358.8,492.5,362.3,496.1,365.4,499.9z"/>
	
		<rect x="371.5" y="476.9" transform="matrix(0.7024 -0.7118 0.7118 0.7024 -242.4965 417.8845)" class="st3" width="13.9" height="44.1"/>
	
		<rect x="371.5" y="476.9" transform="matrix(0.7024 -0.7118 0.7118 0.7024 -242.4965 417.8845)" class="st2" width="13.9" height="44.1"/>
	<path class="st4" d="M375.2,463.7c0,0,18.2-9.6,25.2-15.8c4.2-3.7,8.8-7,13.6-9.9l22.8-13.9l47.7-3.7l2.2,8.1c0,0,3.7,11.7-33,22
		c-36.7,10.3-55.1,26.4-55.1,26.4S375.2,485,375.2,463.7z"/>
	<path class="st2" d="M400.6,475.3c-1.3,1-1.9,1.6-1.9,1.6s-23.5,8.1-23.5-13.2c0,0,1.1-0.6,2.9-1.6c3.7,6,10.2,9.7,17.3,9.7h2.5
		L400.6,475.3z"/>
	<path class="st5" d="M486.1,432.5c-2,4.3-9.1,11.4-32.3,17.9c-29.8,8.3-47.5,20.6-53.1,24.9c-1.3,1-1.9,1.6-1.9,1.6
		s-23.5,8.1-23.5-13.2c0,0,1.1-0.6,2.9-1.6c5.5-3,17-9.5,22.3-14.2c4.2-3.7,8.8-7,13.6-9.9l22.8-13.9l8.5-0.7l39.2-3l2.2,8.1
		C486.8,428.5,487.3,430,486.1,432.5z"/>
	<path class="st6" d="M375.6,458.9l-19.5,12.9l57,47.7c0,0,8.4-5.1,4-11c0,0-14.7-12.5-15.4-30.1l-4.4-5.9h-2.5
		C386.1,472.5,378.4,467.1,375.6,458.9z"/>
	<path class="st2" d="M486.1,432.5c-11.7-5.7-40.4-6.3-40.4-6.3l-0.3-2.9l39.2-3l2.2,8.1C486.8,428.5,487.3,430,486.1,432.5z"/>
	<path class="st7" d="M445.7,424.8c0,0,34.5,0.7,43.3,8.1l-4.4-88.8h-47.7L445.7,424.8z"/>
	<path class="st5" d="M445.7,424.4c0,0,34.5,0.7,43.3,8.1l-4.4-88.8h-47.7L445.7,424.4z"/>
	<path class="st1" d="M473.4,370.5c0,0,86.4-2.9,88.1,8.2c1.7,11.2-86.3,6.5-86.3,6.5S468.1,378.1,473.4,370.5z"/>
	<path class="st5" d="M473.4,370.5c0,0,86.4-2.9,88.1,8.2c1.7,11.2-86.3,6.5-86.3,6.5S468.1,378.1,473.4,370.5z"/>
	<polygon class="st8" points="415.8,608.4 415.8,608.4 415.8,608.4 	"/>
	<rect x="388.2" y="415.1" class="st3" width="15.3" height="132.8"/>
	<path class="st2" d="M403.5,415.1v10.2c-5.1,0.7-10.3,1.1-15.3,1.2v-11.5H403.5z"/>
	<path class="st1" d="M402.3,404.1c-2.1-0.2-4.3-0.5-6.4-0.9c-8.3-1.6-29.2-4.9-34.8,0.7c-7,7-4.7,19.4,14.1,21.2
		c18.8,1.8,51.1-2.9,57.6-10C432.8,415.1,421.2,405.5,402.3,404.1z"/>
	<polygon class="st3" points="399.4,451.5 559.8,401.6 565.1,413.9 400.5,470.3 	"/>
	<polygon class="st3" points="447,530.3 562.7,416.3 569.2,425.7 458.7,540.8 	"/>
	<path class="st2" d="M594.8,491.5c-3.7,0.9-7.3,2.2-10.7,3.8l-7-19.6c3.7-1.6,7.5-3,11.4-4L594.8,491.5z"/>
	<polygon class="st3" points="614.4,549.1 606.2,553.8 548.8,393.5 546.3,386.3 559.8,378.6 563.2,389.2 	"/>
	<polygon class="st2" points="563.2,389.2 548.8,393.5 546.3,386.3 559.8,378.6 	"/>
	<path class="st1" d="M475.7,401.6l80.5-27.6c0,0,14.1,1.8,8.8,13.5L484,411.6C484,411.6,471.6,412.7,475.7,401.6z"/>
	<path class="st2" d="M385,554.6c0,4.5-0.4,9-1,13.5c-7-0.5-14.3-1.2-21.5-2c1.6-8.7,1.4-17.7-0.6-26.3c7-1.5,14.1-2.9,21-4.1
		C384.3,541.9,385,548.2,385,554.6z"/>
	<path class="st2" d="M403.5,532.3v15.6h-15.3v-13.2C393.5,533.7,398.6,532.9,403.5,532.3z"/>
	<path class="st3" d="M427.6,569.1c-31.1,5.9-125.2-10-125.2-10c-5.6-3-4.9-7.8-1.8-11.2l92.3-96.4l2.9,22.3l-86.7,79.4
		c22-5.6,120.2-29.8,129-18.9C448.1,546.7,458.7,563.2,427.6,569.1z"/>
	<circle class="st2" cx="444" cy="544.9" r="18.8"/>
	<circle class="st1" cx="445.2" cy="544.9" r="18.8"/>
	<path class="st7" d="M440.4,542.8L440.4,542.8c2.2-1.7,5.3-1.2,7,1l15,19.9c1.7,2.2,1.2,5.3-1,7l0,0c-2.2,1.7-5.3,1.2-7-1l-15-19.9
		C437.7,547.6,438.2,544.5,440.4,542.8z"/>
	<path class="st4" d="M530.1,283.8l-1.7,22.1c-0.2,2.8-0.2,5.6,0.1,8.4c0.2,2.5,0,6.8-2.4,13.4c-3.1,8.4-4.7,17.4-4.8,26.4v25.2
		l-16.9-2.9c0,0,0.7-35.2-2.2-41.1c-2.9-5.9,2.2-58,2.2-58L530.1,283.8z"/>
	<path class="st5" d="M529.2,294.8l-0.9,11.2c-0.2,2.8-0.2,5.6,0.1,8.4c0.2,2.5,0,6.8-2.4,13.4c-3.1,8.4-4.7,17.4-4.8,26.4v25.2
		l-16.9-2.9c0,0,0.7-35.2-2.2-41.1c-2.1-4.2-0.1-31.5,1.2-47.1c0.6-6.4,1-10.9,1-10.9l25.7,6.6L529.2,294.8z"/>
	<path class="st4" d="M446.4,452.7l-6.4,36.1c-0.8,4.8-2,9.6-3.7,14.2c-3.7,10.2-1.3,24.4,0.5,32.2c0.8,3.4,1.5,5.6,1.5,5.6
		l-19.1,10.3l-5.9-4.4v-2.9l-0.7-65.3c-4.4-10.3-2.9-25.7,0-31.6c0.8-1.9,1.4-4,1.7-6c1.5-7.9,1.9-18.9,1.9-18.9s11.7-19.8,25.7-6.6
		c5.1,4.9,7.1,11.2,7.5,17.3C450.2,443,446.4,452.7,446.4,452.7z"/>
	<path class="st2" d="M449.5,432.6c-10.2,6-27.9,7.8-35.1,8.2c1.5-7.9,1.9-18.9,1.9-18.9s11.7-19.8,25.7-6.6
		C447.1,420.1,449.1,426.5,449.5,432.6z"/>
	<path class="st7" d="M474.3,414.5c-7.8,4.2-15.2,9.1-22,14.7c-11.7,9.5-41.1,10.3-41.1,10.3v-11c0.7-13.2-11.7-27.9-28.6-69
		c-10.8-26.3-7.8-41.1-4.2-48.5c2-4.1,4.2-5.9,4.2-5.9l91.8,17.6l3.3,9.8l7,21c0,0-25.7,1.5-30.1,3.7c-4.4,2.2-1.5,22-1.5,22
		C448.6,399.8,474.3,414.5,474.3,414.5z"/>
	<path class="st2" d="M530.1,283.8l-0.9,11c-12.8,3.7-21.9-8-21.9-8c-1.3,0.4-2.6,0.8-3.9,1.3c0.6-6.4,1-10.9,1-10.9L530.1,283.8z"
		/>
	<path class="st2" d="M477.6,332.6c-0.3,3.4-0.3,5.6-0.3,5.6s-16.9,13.9-45.5-7.3c-28.6-21.3-54.3-15.4-54.3-15.4s0.3-1.7,0.9-4.4
		c2-4.1,4.2-5.9,4.2-5.9l91.8,17.6L477.6,332.6z"/>
	<path class="st9" d="M540,255.1c-1.9,14.9-2.6,33.8-2.6,33.8c-16.9,13.2-30.1-3.7-30.1-3.7c-15.9,4.3-23.4,18.2-27,30.4
		c-1.9,6.6-2.9,13.4-3.1,20.2c0,0-4.5,3.7-12.7,4.4c-7.8,0.7-18.9-1.4-32.8-11.7c-28.6-21.3-54.3-15.4-54.3-15.4s5.1-29.4,16.9-38.2
		c11.7-8.8,20.6-19.8,35.2-53.6s44.8-25.7,44.8-25.7s1.5-6.6,28.6,0c6.6,1.7,12.7,5,17.9,9.5C535.4,217.4,542.4,236.3,540,255.1z"/>
	<path class="st4" d="M512.8,212.2c0,1-0.1,2.1-0.2,3.3c-1.5,13.2-2.9,11.7-19.1,14.7c-10,1.8-15.3-6.6-17.8-13.2
		c-0.9-2.4-1.6-4.8-2-7.3l35.2-5.9C508.8,203.8,513.1,202.6,512.8,212.2z"/>
	<path class="st5" d="M480.4,315.7c-1.9,6.6-2.9,13.4-3.1,20.2c0,0-4.5,3.7-12.7,4.4c-0.2-0.5-0.4-1-0.5-1.5
		c-1.5-6.6-12.5-18.4-12.5-18.4c-7.3-6.6-8.8-18.4-8.8-18.4l-12.1-35.6l-4-3.3c0,0,16.9-13.2,31.6-2.2c14.7,11,10.3,34.5,10.3,34.5
		l2.9,8.1C474.4,306.2,477.5,310.7,480.4,315.7z"/>
	<path class="st4" d="M428.8,262.5l16.2,38.9c0,0,1.5,11.7,8.8,18.4c0,0,11,11.7,12.5,18.4c1.5,6.6,22,24.2,22,24.2
		s19.1,17.6,20.6,24.2c0,0,17.6,5.1,15.4,15.4c0,0,13.2-13.2,0-25.7c-13.2-12.5-30.8-38.2-30.8-38.2s-10.3-27.2-19.8-35.2l-2.9-8.1
		c0,0,4.4-23.5-10.3-34.5C445.7,249.3,428.8,262.5,428.8,262.5z"/>
	<path class="st2" d="M438.3,540.8l-19.1,10.3l-5.9-4.4v-2.9c6.6-0.5,13-2.4,18.7-5.7c1.8-1,3.4-2,4.8-2.8
		C437.6,538.6,438.3,540.8,438.3,540.8z"/>
	<path class="st2" d="M460.4,231.7l10.3,40.4c0,0-31.6,5.1-38.2,0c-6.6-5.1-19.1-6.6-19.1-6.6s13.2-38.2,20.6-42.6
		C441.3,218.5,460.4,231.7,460.4,231.7z"/>
	<path class="st9" d="M460.4,230.2l10.3,40.4c0,0-31.6,5.1-38.2,0c-6.6-5.1-19.1-6.6-19.1-6.6s13.2-38.2,20.6-42.6
		S460.4,230.2,460.4,230.2z"/>
	<path class="st2" d="M512.8,211.5c-8.3,11.5-24.4,14-35.9,5.7c-0.4-0.3-0.8-0.6-1.2-0.9c-0.9-2.4-1.6-4.8-2.1-7.3l35.2-5.9
		C508.8,203.1,513.1,201.8,512.8,211.5z"/>
	<path class="st4" d="M517.6,195.7c0,14.2-11.5,25.7-25.7,25.7s-25.7-11.5-25.7-25.7l0,0v-1.3c0.4-14.2,12.1-25.4,26.3-25.1
		C506.8,169.7,518,181.5,517.6,195.7z"/>
	<path class="st2" d="M517.6,195.7c0,2.4-0.3,4.7-1,7c-2,0.4-4.1,0.2-5.9-0.5c-2.7-1.1-5.1-2.9-7.7-4.3c-7.4-3.8-16.3-3-24.5-1.8
		c-4.1,0.6-8.7,1.2-11.9-1.4c-0.1-0.1-0.2-0.2-0.3-0.3c0.4-14.2,12.1-25.4,26.3-25.1S518,181.5,517.6,195.7L517.6,195.7z"/>
	<path class="st5" d="M397.6,274.6c0,0,19.1,5.1,25,18.4c5.9,13.2,21.8,15.6,21.8,15.6L397.6,274.6z"/>
	<rect x="425.5" y="565.4" class="st3" width="44.1" height="13.9"/>
	<rect x="425.5" y="565.4" class="st2" width="44.1" height="13.9"/>
	<path class="st6" d="M432.1,539.5c3.9-2.2,7.4-4.4,7.7-5.3c0,0,9.9,10.5,18.8,13.8c3,1.1,5.8,2.5,8.5,4.2c3.5,2.2,8.5,4.8,13.1,4.8
		c0,0,10.3,8.8-9.5,10.3c-19.8,1.5-66.1-3.7-66.1-3.7l2.9-18.4l0,0C416.1,545.7,424.6,543.7,432.1,539.5z"/>
	<path class="st3" d="M606.2,553.8c1.7,4.5,10.7,2.9,8.2-4.7c-2.4-7.6-7.3,0.9-7.3,0.9L606.2,553.8z"/>
</g>
<g id="hat">
	<path class="st6" d="M464.8,172.1c4.3-0.5,4.3-3.7,5.1-7.2c0.9-4.7,2.9-9.1,5.8-12.8c0.8-1.2,2-2.2,3.2-2.9c1.7-0.7,3.6-1,5.4-0.7
		c6.3,0.4,12.5,2.5,18.8,1.8c2.4-0.3,4.8-0.9,7.2-1c7.9-0.4,15.1,5.2,18.1,12.1c3,6.9,2.5,14.7,0.7,22c-0.9,3.5-2.1,7.2-5.1,9.5
		c-1.4,1.1-3,1.7-4.2,2.9c-1.5,1.5-2.2,3.8-3.9,5.2c-2.1,1.7-5.4,1.6-8,0.6c-2.6-1-4.9-2.7-7.4-3.8c-7.1-3.4-15.5-2.7-23.4-1.6
		c-3.9,0.6-8.3,1.1-11.4-1.3c-2.2-1.7-3.1-4.4-5.1-6.3c-3.9-3.6-11.4-3.8-12.9-8.7C444.3,169.4,459.9,172.7,464.8,172.1z"/>
</g>
</svg>
